<svg width="1612" height="863" viewBox="0 0 1612 863" fill="none" xmlns="http://www.w3.org/2000/svg">
<mask id="mask0_3316_1644" style="mask-type:luminance" maskUnits="userSpaceOnUse" x="1353" y="105" width="259" height="259">
<path d="M1353.48 105.055H1611.48V363.055H1353.48V105.055Z" fill="white"/>
</mask>
<g mask="url(#mask0_3316_1644)">
<path d="M1482.43 362.961C1482.43 292.003 1424.44 234.008 1353.48 234.008C1424.44 234.008 1482.43 176.008 1482.43 105.055C1482.43 176.008 1540.43 234.008 1611.39 234.008C1540.43 234.008 1482.43 292.003 1482.43 362.961Z" fill="#FFD21F"/>
</g>
<path d="M210.563 422.862C219.849 425.159 229.271 426.524 238.828 426.951C239.907 423.32 241.193 419.524 242.735 415.498C250.896 393.998 244.443 375.373 233.745 364.143C227.75 357.878 220.443 353.867 213.63 353.133C212.032 352.878 210.433 352.857 208.834 353.065C207.229 353.279 205.688 353.711 204.214 354.367C202.735 355.024 201.386 355.873 200.157 356.925C198.927 357.972 197.87 359.175 196.99 360.529C190.948 369.722 189.886 387.612 199.625 416.867C200.344 419.06 204.417 421.097 210.636 422.826M500.224 213.972C498.433 210.581 496.177 207.534 493.464 204.831C490.75 202.128 487.698 199.883 484.302 198.102C473.448 192.451 458.313 191.102 438.078 196.013C414.646 201.68 399.203 215.873 392.131 230.404C389.401 235.789 387.917 241.492 387.683 247.524C387.558 249.966 387.802 252.367 388.417 254.727C389.032 257.091 389.99 259.31 391.292 261.373C394.719 266.508 400.625 269.847 409.078 270.19C429.125 271.013 443.474 268.617 456.037 262.164C468.604 255.706 479.578 245.044 492.776 229.482C496.532 224.951 498.99 219.805 500.157 214.039L500.224 213.972ZM325.604 227.873C327.5 223.961 328.86 219.873 329.683 215.607C330.511 211.341 330.771 207.039 330.469 202.706C330.334 201.253 330.125 199.815 329.854 198.378C329.427 201.768 328.761 205.112 327.849 208.409C327.36 210.268 326.677 212.055 325.813 213.774C324.943 215.492 323.901 217.097 322.693 218.591C321.479 220.086 320.131 221.44 318.631 222.649C317.136 223.857 315.526 224.899 313.813 225.768C316.177 225.982 318.521 226.331 320.849 226.81C322.474 227.237 324.016 227.513 325.521 227.94L325.604 227.873ZM265.688 281.216C260.245 283.669 254.917 285.951 249.698 288.065C255.063 290.81 260.552 293.268 266.167 295.44C267.563 295.987 268.948 296.503 270.328 296.982C268.407 291.857 266.854 286.628 265.672 281.284L265.688 281.216ZM279.933 274.607C276.151 276.425 272.401 278.185 268.719 279.862C270.042 286.107 271.87 292.201 274.198 298.149L274.302 298.419C283.203 301.414 292.334 303.284 301.693 304.034C312.735 304.805 322.797 303.315 330.792 298.899C343.823 291.727 351.459 276.643 349.011 250.503C348.24 242.44 339.167 235.524 327.318 231.675L326.464 233.284C317.683 249.373 301.573 264.32 279.917 274.675L279.933 274.607ZM104.151 313.518C104.526 313.623 104.907 313.742 105.297 313.826C106.985 314.268 108.698 314.57 110.433 314.737C108.328 314.378 106.203 313.982 104.151 313.518ZM83.3336 276.591C84.568 264.222 87.6617 252.336 92.6149 240.935C76.8128 250.076 68.2711 262.112 67.2243 273.701C66.9326 277.133 67.2868 280.503 68.2868 283.8C69.2868 287.097 70.8597 290.097 73.0107 292.789C77.1409 297.878 82.1774 301.81 88.1097 304.586C87.6982 303.862 87.3076 303.128 86.9482 302.378C83.6253 295.341 82.5472 286.419 83.3336 276.591ZM309.927 185.742C309.693 199.586 306.959 212.914 301.724 225.732C303.146 225.612 304.568 225.529 306.006 225.492C315.235 222.789 322.37 216.815 324.834 207.638C326.511 201.555 327.136 195.373 326.719 189.081C324.459 184.419 321.474 180.274 317.766 176.654C314.636 173.591 311.214 170.909 307.495 168.607C309.188 174.19 309.995 179.904 309.927 185.742ZM294.86 239.565C288.542 249.597 278.766 257.248 267.214 262.883C267.006 267.477 267.297 272.044 268.084 276.576C271.511 275.003 274.933 273.393 278.526 271.695C299.552 261.633 315.146 247.201 323.537 231.81L324.068 230.815C322.818 230.492 321.568 230.201 320.282 229.945C315.735 229.013 311.141 228.586 306.5 228.659C305.818 228.847 305.131 229.018 304.427 229.175C302.938 229.518 301.433 229.779 299.912 229.961C298.448 233.279 296.766 236.482 294.86 239.565ZM267.573 259.081C277.844 253.81 286.401 246.805 292.12 237.836C293.631 235.419 294.985 232.919 296.193 230.336C295.339 230.336 294.485 230.336 293.61 230.336C290.162 231.149 286.901 232.44 283.839 234.211C280.771 235.982 278.026 238.159 275.599 240.748C273.354 243.32 271.547 246.169 270.177 249.294C268.808 252.425 267.938 255.685 267.573 259.081ZM221.948 274.659C211.354 275.664 200.761 275.602 190.177 274.472C189.677 277.581 188.693 280.529 187.229 283.32C183.193 290.805 175.505 295.664 161.229 303.195C154.183 306.956 146.912 310.216 139.417 312.972C166.125 311.841 200.292 304.414 242.131 287.789C235.11 283.862 228.386 279.487 221.948 274.659ZM242.714 271.357C237.396 272.591 232.026 273.529 226.604 274.18C232.808 278.57 239.256 282.565 245.948 286.164C252.146 283.643 258.511 280.909 265.037 277.961C264.209 273.435 263.839 268.873 263.927 264.268C257.073 267.289 250.006 269.649 242.714 271.357ZM130.141 235.404C129.797 234.513 129.505 233.607 129.229 232.716C127.86 232.716 126.511 232.716 125.172 232.82C114.563 233.263 104.63 235.044 97.2034 238.539C91.4899 250.716 87.943 263.503 86.568 276.883C85.8336 286.164 86.8076 294.518 89.8753 301.024C90.9222 303.263 92.2711 305.305 93.917 307.154L94.667 307.425C105.459 311.117 116.558 313.013 127.964 313.107C139.073 310.164 149.662 305.909 159.719 300.357C173.417 293.149 180.745 288.544 184.37 281.831C185.646 279.399 186.505 276.826 186.943 274.112C180.177 273.274 173.573 271.748 167.136 269.524C147.255 262.331 135.448 249.956 130.141 235.352V235.404ZM132.62 232.716C132.792 233.248 132.979 233.779 133.167 234.294C138.183 247.987 149.365 259.695 168.214 266.492C174.479 268.633 180.896 270.102 187.469 270.893C187.974 263.695 187.974 256.503 187.469 249.305C187.443 248.695 187.287 248.128 186.99 247.591C184.766 243.315 176.12 239.378 164.735 236.57C154.198 234.081 143.516 232.779 132.688 232.664L132.62 232.716ZM128.735 198.836C129.198 196.852 129.761 194.867 130.448 192.878C128.412 194.695 126.407 196.576 124.401 198.529C114.063 208.998 105.683 220.852 99.2555 234.086C107.615 231.232 116.209 229.706 125.037 229.513C126.13 229.513 127.245 229.43 128.36 229.414C127.224 224.362 126.688 219.253 126.755 214.076C126.818 208.904 127.479 203.805 128.735 198.784V198.836ZM135.292 188.654C133.901 192.216 132.761 195.857 131.87 199.576C130.636 204.477 130.005 209.451 129.969 214.508C129.933 219.56 130.5 224.544 131.662 229.466C143.094 229.539 154.37 230.888 165.49 233.524C177.745 236.534 187.162 241.039 189.849 246.19C190.354 247.138 190.63 248.149 190.688 249.222C191.177 256.597 191.141 263.966 190.589 271.336C199.755 272.294 208.938 272.44 218.13 271.784C199.677 257.029 186.698 239.857 186.172 224.69C185.177 195.878 189.302 175.044 201.969 162.68C207.089 157.768 213.058 154.347 219.88 152.409C210.677 153.82 201.61 155.836 192.677 158.456C182.183 161.466 172.104 165.508 162.438 170.586C152.776 175.664 143.724 181.669 135.292 188.602V188.654ZM275.516 141.794C275.558 143.065 275.401 144.31 275.052 145.529C278.427 145.591 281.74 146.081 284.99 147.008C288.235 147.935 291.308 149.263 294.209 150.987C296.646 152.544 298.823 154.409 300.729 156.581C302.641 158.748 304.209 161.143 305.438 163.758C310.782 166.628 315.631 170.18 319.974 174.409C321.839 176.248 323.547 178.216 325.11 180.315C317.563 153.352 285.891 137.977 255.266 125.758L253.979 126.68C261.839 128.133 267.094 130.274 270.412 132.789C271.922 133.8 273.12 135.091 274.021 136.669C274.917 138.242 275.417 139.935 275.516 141.748V141.794ZM271.698 145.409C272.115 144.258 272.313 143.07 272.282 141.847C272.193 140.518 271.818 139.279 271.146 138.128C270.474 136.977 269.578 136.034 268.464 135.31C265.037 132.758 259.459 130.633 250.677 129.315C249.209 130.617 247.844 132.024 246.584 133.529C243.266 137.482 240.776 141.899 239.104 146.779C249.75 145.888 260.62 145.492 271.698 145.409ZM272.521 150.987C272.229 151.451 271.901 151.914 271.563 152.357C281.459 154.07 290.995 156.966 300.167 161.055C298.104 158.076 295.542 155.617 292.479 153.68C289.657 152.013 286.662 150.758 283.5 149.909C280.334 149.055 277.115 148.643 273.839 148.659C273.448 149.466 273.011 150.242 272.521 150.987ZM267.964 151.742C268.62 150.945 269.235 150.112 269.797 149.242L270.157 148.659C262.078 148.732 254.089 149.008 246.188 149.503C253.485 149.789 260.729 150.534 267.933 151.742H267.964ZM255.537 164.873C249.11 166.117 242.688 166.117 236.261 164.873C235.886 189.576 246.792 206.695 261.084 216.695C267.625 221.227 274.787 224.32 282.568 225.972C286.063 226.716 289.594 227.107 293.167 227.154L295.084 226.706C296.042 226.518 297.016 226.331 298.011 226.18C303.485 213.258 306.339 199.789 306.568 185.758C306.672 179.268 305.563 172.987 303.229 166.93C303.11 166.617 302.974 166.294 302.839 165.987C292.157 160.597 280.901 156.998 269.078 155.185C264.37 160.472 258.052 164.482 255.537 164.873ZM236.365 161.586C240.953 162.784 247.099 162.94 255.042 161.69C256.907 161.383 261.412 158.555 265.313 154.617C256.078 153.097 246.782 152.487 237.427 152.789C236.86 155.492 236.5 158.227 236.344 160.987L236.365 161.586ZM225.953 159.102C224.839 157.805 223.974 156.357 223.37 154.758C219.776 155.57 216.36 156.852 213.115 158.597C209.865 160.336 206.912 162.482 204.25 165.029C192.266 176.685 188.448 196.732 189.422 224.617C189.938 239.633 203.615 256.836 222.771 271.425C229.24 270.779 235.641 269.737 241.979 268.289C249.61 266.55 256.995 264.065 264.131 260.841C264.386 256.758 265.287 252.826 266.839 249.039C268.386 245.253 270.506 241.815 273.188 238.727C276.683 234.904 280.802 231.951 285.547 229.873C284.365 229.685 283.151 229.482 281.969 229.227C273.776 227.451 266.245 224.164 259.37 219.362C243.964 208.701 232.427 190.263 233.11 163.899C230.313 162.919 227.927 161.32 225.953 159.102ZM226.573 153.966C227.042 155.05 227.657 156.034 228.422 156.93C229.756 158.425 231.339 159.565 233.177 160.352C233.354 157.847 233.667 155.362 234.12 152.888C231.584 153.138 229.068 153.518 226.573 154.039V153.966ZM222.396 144.722C223.375 138.654 225.5 133.013 228.782 127.81C224.943 127.81 220.818 127.81 216.37 127.966C188.755 128.836 164.495 144.263 148.766 164.789C144.568 170.253 140.979 176.091 137.995 182.3C146.052 176.185 154.594 170.862 163.636 166.331C172.672 161.8 182.052 158.133 191.766 155.336C201.755 152.435 211.896 150.253 222.188 148.779C222.157 147.425 222.224 146.07 222.396 144.722ZM232.547 127.945C232.292 128.373 232.016 128.784 231.776 129.216C228.61 134.123 226.552 139.456 225.615 145.222C225.469 146.263 225.401 147.315 225.422 148.373C228.849 147.925 232.271 147.534 235.594 147.206C237.386 141.404 240.24 136.185 244.151 131.544C244.943 130.602 245.761 129.711 246.599 128.852C242.474 128.305 237.818 127.945 232.547 127.945ZM238.917 119.388C237.391 121.102 235.969 122.951 234.688 124.763C239.688 124.914 244.672 125.32 249.631 125.977C250.297 125.414 250.985 124.867 251.703 124.268L241.433 120.31L238.917 119.388ZM347.948 113.513C327.693 102.425 304.771 94.5809 286.026 94.5809C269.334 94.5809 252.813 104.477 241.224 116.836L242.646 117.383C246.651 118.94 250.761 120.518 254.886 122.143C261.391 118.102 268.37 115.206 275.823 113.445C288.849 110.175 304.104 109.357 320.334 110.347C329.594 110.914 338.797 111.951 347.948 113.466V113.513ZM386.276 137.482C390.61 134.607 395.058 131.815 399.563 129.232C388.282 125.706 376.589 122.555 364.881 120.003C369.037 122.831 372.974 125.737 376.62 128.716C379.995 131.461 383.214 134.378 386.276 137.466V137.482ZM385.813 141.643C380.099 145.492 374.568 149.503 369.245 153.336L364.11 156.998C355.172 163.419 351.938 171.43 352.724 178.018C352.891 179.57 353.302 181.055 353.964 182.466C354.625 183.878 355.495 185.149 356.573 186.274C357.709 187.414 359 188.326 360.453 189.013C361.907 189.695 363.433 190.112 365.032 190.263C372.854 191.117 383.589 186.529 395.11 172.44C396.042 171.315 396.745 170.065 397.235 168.695C397.719 167.32 397.953 165.904 397.938 164.445C397.938 159.722 395.641 154.347 391.636 148.732C389.849 146.242 387.912 143.878 385.813 141.643ZM403.808 130.534C398.672 133.373 393.537 136.524 388.552 139.81C390.61 142.039 392.532 144.388 394.308 146.847C398.703 153.008 401.151 159.018 401.151 164.445C401.177 166.274 400.881 168.055 400.266 169.779C399.657 171.503 398.766 173.07 397.594 174.477C385.25 189.56 373.453 194.44 364.657 193.482C362.683 193.289 360.802 192.774 359.011 191.93C357.219 191.081 355.625 189.956 354.229 188.55C352.896 187.164 351.823 185.607 351.011 183.867C350.193 182.128 349.683 180.305 349.469 178.399C348.547 170.748 352.157 161.55 362.172 154.43L367.308 150.768C372.443 147.003 377.922 143.112 383.506 139.331C380.651 136.482 377.662 133.784 374.532 131.232C368.677 126.477 362.526 122.138 356.078 118.222C344.198 115.883 332.214 114.315 320.131 113.513C304.188 112.539 289.313 113.347 276.558 116.529C270.24 118.029 264.256 120.383 258.599 123.581C292.636 137.279 327.302 155.097 329.886 188.445C331.917 192.919 333.146 197.607 333.568 202.503C333.896 207.039 333.641 211.55 332.802 216.024C331.959 220.498 330.558 224.789 328.604 228.899C341.407 233.143 351.235 241.018 352.11 250.3C354.709 277.914 346.391 294.055 332.25 301.847C323.688 306.57 312.99 308.159 301.349 307.357C292.74 306.68 284.318 305.05 276.078 302.461C277.927 305.904 280.162 309.076 282.776 311.977C299.448 330.81 332.813 344.779 366.797 352.242C400.776 359.706 435.271 360.617 454.36 353.341C457.766 352.128 460.854 350.357 463.62 348.034C484.886 329.201 501.693 294.107 506.063 261.94C507.959 247.951 507.5 234.55 504.006 223.336C503.495 221.623 502.912 220.102 502.292 218.56C500.787 223.341 498.417 227.649 495.188 231.482V231.57C481.719 247.472 470.521 258.326 457.526 265.039C444.412 271.768 429.589 274.263 408.959 273.425C399.354 273.034 392.578 269.128 388.604 263.154C387.104 260.815 385.995 258.305 385.266 255.623C384.537 252.945 384.229 250.216 384.344 247.44C384.604 240.966 386.188 234.841 389.099 229.055C396.547 213.768 412.724 198.873 437.224 192.93C458.334 187.794 474.219 189.284 485.724 195.279C488.792 196.878 491.615 198.836 494.183 201.154C496.75 203.477 498.99 206.081 500.891 208.972C501.172 205.534 501.032 202.107 500.479 198.701C500 195.805 499.271 192.977 498.297 190.211C497.318 187.445 496.104 184.789 494.657 182.237C493.209 179.685 491.552 177.284 489.677 175.024C487.808 172.763 485.756 170.69 483.516 168.794H483.412C469.047 156.586 438.61 141.831 403.808 130.565V130.534ZM445.339 117.982C432.552 117.982 419.901 122.248 407.677 128.445C441.709 139.742 471.256 154.242 485.448 166.107L485.552 166.19C487.948 168.211 490.146 170.43 492.146 172.841C494.146 175.253 495.922 177.82 497.469 180.544C499.016 183.268 500.308 186.112 501.354 189.065C502.396 192.018 503.172 195.044 503.683 198.138C504.532 203.279 504.49 208.414 503.563 213.544C505.006 216.388 506.198 219.331 507.141 222.378C510.766 234.05 511.266 247.919 509.297 262.367C504.844 295.222 487.625 331.133 465.797 350.461C462.729 353.055 459.308 355.024 455.526 356.367C435.938 363.867 400.745 362.992 366.125 355.409C331.511 347.826 297.532 333.498 280.36 314.117C276.823 310.232 273.969 305.893 271.802 301.107C269.506 300.336 267.214 299.518 264.953 298.628C258.381 296.06 251.974 293.123 245.745 289.81C196.422 309.753 157.339 316.977 128.323 316.258C118.703 318.503 110.813 318.586 104.479 316.925C99.6565 315.732 95.5159 313.357 92.0472 309.805C82.3076 306.003 75.1357 300.768 70.4586 294.706C69.2711 293.222 68.2347 291.638 67.3493 289.956C66.4638 288.274 65.7451 286.524 65.193 284.706C64.6409 282.883 64.2607 281.029 64.0628 279.138C63.8649 277.248 63.844 275.357 64.0055 273.461C65.2243 260.003 75.4795 246.07 94.4795 236.263L94.7555 236.138C101.511 221.211 110.641 207.909 122.146 196.237C125.568 192.81 129.068 189.633 132.636 186.701C136.099 178.123 140.667 170.18 146.334 162.873C162.479 141.643 187.589 125.638 216.266 124.727C221.537 124.555 226.386 124.518 230.802 124.607C232.318 122.367 233.943 120.211 235.677 118.138C218.063 111.742 200.011 106.982 181.532 103.862C165.505 101.294 149.808 100.555 137.823 103.414H137.74L135.068 103.69L134.724 100.472L137.172 100.216C149.657 97.284 165.693 98.0236 182.063 100.643C201.162 103.878 219.808 108.836 237.99 115.518C250.162 102.149 267.985 91.258 286.042 91.258C307.766 91.258 334.917 101.534 357.344 115.123C372.943 118.227 388.313 122.222 403.448 127.107C416.854 119.899 430.943 114.8 445.354 114.8L445.339 117.982ZM367.068 683.945C366.651 683.529 366.214 683.143 365.75 682.779C365.292 682.409 364.808 682.076 364.308 681.763C363.808 681.456 363.292 681.175 362.761 680.925C362.224 680.675 361.683 680.456 361.125 680.263C360.568 680.076 360 679.925 359.422 679.8C358.849 679.675 358.266 679.586 357.683 679.529C357.094 679.472 356.511 679.451 355.922 679.461C355.334 679.472 354.745 679.513 354.162 679.591C353.578 679.669 353 679.779 352.433 679.925C351.86 680.07 351.302 680.242 350.75 680.451C350.198 680.659 349.662 680.899 349.141 681.169C348.615 681.44 348.11 681.737 347.62 682.065C347.136 682.393 346.667 682.748 346.214 683.128C345.766 683.508 345.344 683.914 344.943 684.347C344.542 684.774 344.162 685.227 343.813 685.701C343.464 686.175 343.141 686.664 342.849 687.175C342.552 687.685 342.292 688.211 342.058 688.748C341.823 689.289 341.62 689.841 341.453 690.404C341.282 690.966 341.141 691.539 341.037 692.117C340.933 692.695 340.86 693.279 340.823 693.867C340.787 694.456 340.782 695.044 340.813 695.633C340.839 696.216 340.901 696.805 341 697.383C341.094 697.966 341.224 698.539 341.386 699.102C341.547 699.669 341.74 700.222 341.969 700.768C342.193 701.31 342.448 701.841 342.735 702.352C343.021 702.867 343.334 703.362 343.677 703.841C344.021 704.32 344.391 704.779 344.787 705.216C345.177 705.649 345.599 706.06 346.042 706.451C346.485 706.836 346.948 707.201 347.433 707.534C347.917 707.867 348.417 708.175 348.938 708.451C349.453 708.732 349.99 708.977 350.537 709.195C351.084 709.409 351.641 709.597 352.209 709.748C352.776 709.899 353.354 710.018 353.933 710.107C354.516 710.19 355.099 710.242 355.688 710.263C356.276 710.284 356.865 710.268 357.453 710.222C358.037 710.175 358.62 710.091 359.198 709.977C359.776 709.862 360.344 709.716 360.901 709.534C361.464 709.357 362.011 709.143 362.547 708.904C363.084 708.659 363.604 708.388 364.11 708.086C364.615 707.784 365.099 707.456 365.568 707.097C366.037 706.737 366.479 706.352 366.907 705.945C367.328 705.534 367.724 705.107 368.099 704.649C368.474 704.195 368.818 703.722 369.141 703.227C369.459 702.732 369.75 702.222 370.011 701.695C370.271 701.164 370.5 700.628 370.698 700.07C370.896 699.518 371.063 698.956 371.198 698.383C371.334 697.81 371.433 697.232 371.5 696.643C371.573 696.06 371.604 695.477 371.604 694.888C371.61 692.831 371.219 690.857 370.433 688.961C369.646 687.065 368.526 685.393 367.068 683.945ZM356.115 676.159C356.834 676.154 357.552 676.195 358.266 676.274C358.985 676.352 359.693 676.477 360.396 676.638C361.094 676.8 361.787 676.998 362.464 677.237C363.146 677.482 363.808 677.758 364.453 678.076C365.104 678.393 365.729 678.742 366.334 679.133C366.943 679.524 367.526 679.945 368.084 680.399C368.641 680.857 369.172 681.341 369.672 681.857C370.177 682.373 370.646 682.914 371.089 683.487C371.526 684.06 371.933 684.654 372.302 685.268C372.677 685.883 373.011 686.524 373.308 687.175C373.61 687.831 373.87 688.503 374.089 689.19C374.313 689.873 374.495 690.57 374.636 691.274C374.776 691.982 374.881 692.695 374.938 693.414C375 694.128 375.021 694.847 374.995 695.57C374.974 696.289 374.912 697.003 374.808 697.716C374.703 698.43 374.558 699.133 374.375 699.831C374.188 700.529 373.964 701.211 373.698 701.883C373.438 702.55 373.136 703.206 372.797 703.841C372.459 704.477 372.084 705.091 371.672 705.685C371.266 706.279 370.823 706.847 370.349 707.388C369.875 707.93 369.37 708.44 368.839 708.925C368.308 709.409 367.745 709.862 367.162 710.284C366.573 710.706 365.969 711.091 365.339 711.44C364.709 711.789 364.063 712.102 363.396 712.378C362.729 712.654 362.052 712.893 361.36 713.091C360.667 713.289 359.964 713.445 359.256 713.565C358.547 713.685 357.828 713.758 357.11 713.794C356.391 713.831 355.672 713.826 354.953 713.779C354.235 713.732 353.521 713.643 352.813 713.518C352.104 713.388 351.401 713.222 350.714 713.008C350.026 712.8 349.349 712.555 348.688 712.268C348.026 711.982 347.386 711.659 346.761 711.3C346.136 710.935 345.537 710.544 344.959 710.112C344.381 709.685 343.828 709.222 343.302 708.732C342.776 708.237 342.282 707.716 341.813 707.169C341.349 706.617 340.917 706.044 340.516 705.445C340.115 704.847 339.75 704.227 339.422 703.586C339.094 702.945 338.802 702.289 338.547 701.612C338.292 700.94 338.078 700.253 337.907 699.555C337.729 698.852 337.599 698.149 337.506 697.435C337.412 696.716 337.36 696.003 337.344 695.279C337.334 694.56 337.365 693.841 337.438 693.128C337.506 692.409 337.62 691.695 337.771 690.992C337.927 690.289 338.12 689.597 338.349 688.914C338.584 688.232 338.854 687.565 339.162 686.914C339.469 686.263 339.818 685.633 340.198 685.024C340.578 684.414 340.995 683.826 341.443 683.263C341.891 682.695 342.37 682.159 342.881 681.654C344.631 679.893 346.657 678.539 348.948 677.586C351.24 676.633 353.631 676.159 356.115 676.159ZM363.198 730.185C362.86 729.847 362.506 729.529 362.131 729.232C361.756 728.935 361.365 728.659 360.959 728.409C360.552 728.159 360.131 727.93 359.698 727.722C359.266 727.518 358.823 727.341 358.37 727.185C357.917 727.034 357.453 726.909 356.99 726.805C356.521 726.706 356.047 726.633 355.573 726.586C355.094 726.539 354.62 726.518 354.141 726.529C353.662 726.534 353.183 726.57 352.709 726.633C352.235 726.695 351.766 726.784 351.302 726.904C350.839 727.018 350.381 727.159 349.933 727.331C349.485 727.498 349.047 727.69 348.625 727.909C348.198 728.128 347.787 728.373 347.391 728.638C346.99 728.904 346.61 729.19 346.245 729.498C345.881 729.81 345.532 730.138 345.209 730.487C344.881 730.836 344.573 731.206 344.287 731.586C344 731.972 343.74 732.373 343.5 732.784C343.261 733.201 343.047 733.628 342.854 734.065C342.667 734.503 342.5 734.951 342.36 735.409C342.219 735.867 342.11 736.331 342.021 736.805C341.938 737.274 341.875 737.748 341.844 738.227C341.813 738.706 341.808 739.18 341.834 739.659C341.854 740.138 341.907 740.612 341.985 741.086C342.063 741.555 342.167 742.024 342.297 742.482C342.427 742.945 342.584 743.393 342.766 743.836C342.948 744.279 343.157 744.711 343.386 745.128C343.62 745.544 343.875 745.951 344.151 746.341C344.433 746.732 344.729 747.102 345.052 747.456C345.37 747.81 345.714 748.149 346.073 748.466C346.433 748.779 346.808 749.076 347.198 749.347C347.594 749.623 348 749.873 348.422 750.097C348.844 750.326 349.276 750.524 349.719 750.701C350.167 750.878 350.62 751.029 351.078 751.154C351.542 751.279 352.011 751.378 352.485 751.451C352.959 751.518 353.433 751.565 353.912 751.581C354.391 751.597 354.865 751.586 355.344 751.55C355.818 751.513 356.292 751.445 356.761 751.352C357.235 751.263 357.693 751.143 358.151 750.998C358.61 750.852 359.052 750.68 359.49 750.487C359.927 750.289 360.349 750.07 360.761 749.826C361.172 749.581 361.568 749.31 361.948 749.024C362.328 748.732 362.693 748.419 363.037 748.086C363.381 747.758 363.709 747.409 364.011 747.039C364.318 746.669 364.599 746.284 364.86 745.883C365.12 745.482 365.354 745.065 365.568 744.638C365.782 744.211 365.969 743.768 366.136 743.32C366.297 742.867 366.433 742.414 366.542 741.945C366.651 741.482 366.735 741.008 366.792 740.534C366.849 740.06 366.881 739.581 366.881 739.107C366.886 737.43 366.573 735.82 365.933 734.279C365.297 732.732 364.386 731.367 363.198 730.185ZM354.334 723.336C354.938 723.336 355.537 723.373 356.136 723.44C356.735 723.508 357.328 723.612 357.917 723.753C358.506 723.888 359.084 724.06 359.651 724.263C360.219 724.466 360.771 724.701 361.313 724.966C361.854 725.232 362.381 725.529 362.886 725.857C363.391 726.185 363.881 726.539 364.344 726.919C364.813 727.305 365.256 727.711 365.672 728.149C366.094 728.581 366.485 729.034 366.854 729.513C367.219 729.992 367.558 730.492 367.87 731.008C368.183 731.524 368.459 732.06 368.709 732.607C368.959 733.159 369.172 733.722 369.36 734.294C369.542 734.867 369.693 735.451 369.813 736.044C369.927 736.638 370.011 737.232 370.063 737.831C370.11 738.435 370.125 739.039 370.104 739.638C370.089 740.242 370.032 740.841 369.943 741.44C369.854 742.034 369.735 742.628 369.578 743.206C369.422 743.789 369.229 744.362 369.011 744.925C368.787 745.487 368.537 746.034 368.25 746.565C367.964 747.097 367.651 747.612 367.308 748.107C366.964 748.602 366.594 749.076 366.198 749.529C365.797 749.982 365.375 750.414 364.927 750.82C364.485 751.222 364.016 751.602 363.526 751.951C363.032 752.305 362.526 752.628 361.995 752.919C361.469 753.211 360.927 753.472 360.37 753.706C359.813 753.935 359.245 754.133 358.662 754.3C358.084 754.466 357.495 754.597 356.901 754.695C356.308 754.794 355.709 754.857 355.104 754.888C354.5 754.914 353.901 754.909 353.297 754.873C352.693 754.831 352.099 754.758 351.506 754.649C350.912 754.544 350.323 754.399 349.75 754.227C349.172 754.05 348.604 753.841 348.052 753.602C347.5 753.362 346.959 753.091 346.438 752.789C345.917 752.487 345.412 752.159 344.927 751.8C344.443 751.44 343.979 751.055 343.542 750.643C343.099 750.227 342.683 749.794 342.297 749.331C341.907 748.873 341.542 748.393 341.209 747.888C340.87 747.388 340.568 746.867 340.292 746.331C340.016 745.794 339.771 745.248 339.558 744.68C339.344 744.117 339.167 743.539 339.021 742.956C338.875 742.373 338.761 741.779 338.683 741.18C338.604 740.581 338.558 739.982 338.547 739.378C338.542 738.774 338.563 738.175 338.625 737.576C338.683 736.972 338.776 736.378 338.901 735.789C339.032 735.201 339.193 734.617 339.386 734.05C339.578 733.477 339.808 732.919 340.063 732.373C340.323 731.826 340.61 731.3 340.927 730.784C341.245 730.274 341.594 729.779 341.969 729.31C342.344 728.836 342.745 728.388 343.172 727.961C344.641 726.461 346.344 725.305 348.282 724.492C350.214 723.68 352.235 723.274 354.334 723.268V723.336ZM360.479 772.982C360.032 772.539 359.547 772.138 359.021 771.789C358.5 771.44 357.948 771.143 357.365 770.904C356.782 770.664 356.183 770.482 355.563 770.357C354.943 770.237 354.323 770.175 353.693 770.175C353.063 770.175 352.438 770.237 351.818 770.357C351.198 770.482 350.599 770.664 350.016 770.904C349.433 771.143 348.881 771.44 348.36 771.789C347.834 772.138 347.349 772.539 346.901 772.982C346.459 773.43 346.063 773.919 345.714 774.44C345.365 774.966 345.068 775.524 344.828 776.102C344.589 776.685 344.407 777.289 344.282 777.904C344.162 778.524 344.099 779.149 344.099 779.779C344.099 780.409 344.162 781.034 344.282 781.654C344.407 782.274 344.589 782.873 344.828 783.456C345.068 784.039 345.365 784.591 345.714 785.117C346.063 785.643 346.459 786.128 346.901 786.576C347.349 787.024 347.834 787.419 348.36 787.768C348.886 788.123 349.438 788.414 350.021 788.659C350.604 788.899 351.203 789.081 351.823 789.206C352.443 789.326 353.068 789.388 353.698 789.388C354.328 789.388 354.953 789.326 355.573 789.201C356.188 789.081 356.792 788.899 357.375 788.654C357.959 788.414 358.511 788.117 359.032 787.763C359.558 787.414 360.042 787.018 360.49 786.57C360.933 786.123 361.334 785.638 361.683 785.112C362.032 784.586 362.328 784.034 362.568 783.451C362.813 782.867 362.995 782.268 363.115 781.649C363.24 781.029 363.297 780.404 363.297 779.774C363.297 779.143 363.235 778.518 363.11 777.899C362.99 777.284 362.808 776.68 362.563 776.097C362.323 775.518 362.026 774.961 361.672 774.44C361.323 773.914 360.927 773.43 360.479 772.982ZM353.631 766.925C354.12 766.925 354.61 766.951 355.099 767.008C355.589 767.065 356.073 767.149 356.552 767.258C357.026 767.373 357.5 767.508 357.964 767.675C358.427 767.841 358.875 768.029 359.318 768.248C359.756 768.466 360.183 768.706 360.599 768.972C361.011 769.242 361.407 769.529 361.787 769.841C362.167 770.154 362.526 770.487 362.87 770.836C363.214 771.19 363.532 771.56 363.834 771.951C364.131 772.341 364.407 772.748 364.657 773.169C364.912 773.591 365.141 774.024 365.344 774.472C365.547 774.919 365.719 775.378 365.87 775.847C366.021 776.315 366.146 776.789 366.24 777.268C366.339 777.753 366.407 778.237 366.443 778.727C366.485 779.216 366.5 779.706 366.479 780.201C366.464 780.69 366.422 781.18 366.349 781.664C366.276 782.154 366.177 782.633 366.052 783.107C365.922 783.581 365.771 784.044 365.589 784.503C365.407 784.961 365.203 785.404 364.969 785.841C364.74 786.274 364.485 786.69 364.203 787.097C363.922 787.498 363.625 787.888 363.297 788.258C362.974 788.628 362.631 788.977 362.266 789.305C361.901 789.633 361.521 789.945 361.12 790.232C360.724 790.518 360.308 790.779 359.881 791.018C359.448 791.258 359.006 791.472 358.552 791.659C358.099 791.847 357.636 792.008 357.162 792.143C356.693 792.279 356.214 792.383 355.729 792.466C355.245 792.544 354.756 792.597 354.266 792.623C353.771 792.643 353.282 792.643 352.792 792.607C352.302 792.576 351.813 792.518 351.334 792.43C350.849 792.341 350.37 792.227 349.901 792.081C349.433 791.94 348.969 791.774 348.521 791.576C348.068 791.383 347.631 791.159 347.203 790.914C346.782 790.669 346.37 790.399 345.974 790.107C345.578 789.815 345.203 789.503 344.844 789.164C344.485 788.831 344.146 788.472 343.828 788.097C343.511 787.722 343.214 787.331 342.943 786.925C342.672 786.513 342.422 786.091 342.198 785.654C341.974 785.216 341.771 784.768 341.599 784.31C341.427 783.852 341.282 783.383 341.162 782.904C341.042 782.43 340.948 781.945 340.886 781.461C340.823 780.972 340.787 780.482 340.776 779.992C340.771 779.498 340.787 779.008 340.839 778.518C340.886 778.034 340.964 777.544 341.063 777.065C341.167 776.586 341.297 776.112 341.459 775.649C341.615 775.185 341.797 774.727 342.011 774.284C342.219 773.841 342.453 773.409 342.714 772.992C342.974 772.576 343.256 772.175 343.563 771.789C343.865 771.404 344.193 771.039 344.542 770.69C345.756 769.472 347.151 768.539 348.74 767.888C350.328 767.232 351.985 766.914 353.698 766.925H353.631ZM186.823 452.201C113.209 468.878 60.5836 428.373 30.2972 375.268C18.5524 354.492 10.1149 332.445 4.97946 309.138C0.0836223 286.883 -1.21846 265.518 1.14612 247.664C4.72425 220.732 16.6565 201.784 37.2347 200.003C43.5315 199.456 45.0888 195.31 44.542 188.841C43.7347 182.753 42.4847 176.753 40.792 170.847C37.6097 158.232 33.7763 143.097 34.6826 127.742C37.2815 83.4351 79.0055 38.258 287.62 50.5496C310.558 51.9038 316.209 59.4715 319.511 63.9038C320.776 65.6173 321.568 66.659 323.229 66.0757C327.266 64.6903 335.761 57.5184 357.464 39.0444C364.021 33.4819 371.828 26.8569 382.474 17.9038C401.391 2.00275 430.412 -3.03371 461.552 1.71109C471.891 3.36213 482.011 5.88817 491.912 9.28921C501.818 12.685 511.354 16.9142 520.526 21.9611C530.334 27.2632 539.573 33.4246 548.235 40.4403C556.896 47.4611 564.839 55.2163 572.058 63.7163C598.677 95.3517 614.271 137.998 606.292 189.951L606.172 190.758L605.453 191.133C605.266 191.237 602.578 194.56 598.49 199.794C583.594 218.628 550.74 259.956 535.146 264.44C533.693 268.737 536.995 278.904 541.224 291.831C547.573 311.347 555.912 337.008 553.396 360.716C549.047 401.529 512.823 436.044 380.099 421.867C364.912 420.258 353.115 412.69 344.146 406.904C339.573 403.961 335.74 401.498 332.761 400.675C329.782 399.852 327.183 401.185 325.558 407.044C323.433 414.643 315.282 420.123 304.068 423.873C290.599 428.336 272.469 430.378 254.99 430.529C250.297 430.529 245.677 430.529 241.193 430.258C228.558 476.753 255.297 489.914 286.063 505.034C319.532 521.503 357.584 540.232 357.584 604.086V671.123H354.349V604.154C354.349 542.3 317.25 524.055 284.641 508.013C252.646 492.279 224.724 478.586 237.854 430.138C228.344 429.669 218.964 428.279 209.724 425.977C202.469 423.956 197.625 421.232 196.511 417.93C186.427 387.576 187.729 368.732 194.266 358.8C195.297 357.185 196.542 355.748 197.99 354.498C199.443 353.242 201.042 352.222 202.792 351.435C204.537 350.649 206.365 350.133 208.266 349.878C210.162 349.623 212.063 349.649 213.953 349.951C221.505 350.841 229.532 355.086 236.037 361.935C247.526 373.914 254.422 393.794 245.729 416.716C244.323 420.378 243.141 423.873 242.131 427.211C246.328 427.399 250.693 427.466 255.006 427.43C272.125 427.279 289.964 425.289 303.11 420.925C313.386 417.503 320.693 412.727 322.474 406.305C324.75 398.107 328.448 396.242 333.688 397.748C337.11 398.706 341.151 401.274 345.964 404.357C354.677 409.972 366.11 417.315 380.526 418.836C510.631 432.685 546.084 399.701 550.261 360.633C552.709 337.623 544.474 312.32 538.282 293.081C533.604 278.68 529.995 267.57 532.683 262.503L533.042 261.82L533.792 261.664C547.917 258.737 581.214 216.794 596.141 197.966C599.568 193.633 602.084 190.503 603.365 189.149C610.948 138.456 595.698 96.8569 569.745 65.9923C566.297 61.9715 562.677 58.1121 558.891 54.409C555.104 50.7111 551.162 47.1798 547.063 43.8257C542.964 40.4663 538.729 37.2944 534.354 34.31C529.979 31.3257 525.485 28.5392 520.865 25.9455C516.245 23.3569 511.521 20.9715 506.693 18.7944C501.865 16.6173 496.953 14.659 491.953 12.9142C486.953 11.1642 481.886 9.64338 476.75 8.34129C471.615 7.03921 466.438 5.96629 461.209 5.11734C431.026 0.513169 402.865 5.28921 384.719 20.5236C375.646 28.1434 366.985 35.5028 359.709 41.6642C337.61 60.4975 328.979 67.7215 324.354 69.2944C320.469 70.6486 319.219 68.8882 316.995 65.9923C314.032 62.0184 308.948 55.1903 287.516 54.008C81.5367 41.6642 40.4326 85.1486 37.917 127.945C37.042 142.789 40.8128 157.685 43.943 170.076C45.667 176.149 46.9378 182.31 47.7607 188.565C48.5159 197.128 46.3076 202.482 37.4899 203.253C18.6565 204.966 7.71904 222.722 4.34404 248.107C2.01591 265.602 3.30237 286.628 8.1305 308.472C13.193 331.461 21.5159 353.201 33.1045 373.695C62.7399 425.669 114.183 465.331 186.084 449.018L186.823 452.201Z" fill="#40A5F2"/>
<mask id="mask1_3316_1644" style="mask-type:luminance" maskUnits="userSpaceOnUse" x="479" y="64" width="1052" height="737">
<path d="M1530.07 64.8433H479.406V800.843H1530.07V64.8433Z" fill="white"/>
</mask>
<g mask="url(#mask1_3316_1644)">
<path d="M562.302 332.468C544.646 332.468 530.016 328.437 518.407 320.364C506.792 312.281 498.084 301.364 492.282 287.614C486.474 273.854 483.573 258.52 483.573 241.614C483.573 213.854 490.573 191.708 504.573 175.177C518.584 158.651 539.724 150.385 567.99 150.385C576.823 150.385 585.782 151.963 594.865 155.114C603.948 158.27 611.578 163.067 617.761 169.51C623.938 175.942 627.032 183.948 627.032 193.531C627.032 198.588 625.136 202.692 621.344 205.843C617.563 209 613.032 210.573 607.74 210.573C597.391 210.573 590.828 205.151 588.052 194.302C587.552 192.526 587.042 190.692 586.532 188.802C586.032 186.916 585.396 184.963 584.636 182.948C582.87 176.63 580.094 170.635 576.302 164.968C572.521 159.291 566.849 156.448 559.282 156.448C551.709 156.448 545.594 159.291 540.927 164.968C536.261 170.635 532.724 177.635 530.323 185.968C527.917 194.302 526.271 202.698 525.386 211.156C524.511 219.604 524.073 226.604 524.073 232.156C524.073 240.479 525.141 249.114 527.282 258.073C529.433 267.031 532.782 275.364 537.323 283.073C541.865 290.77 547.792 297.01 555.115 301.802C562.433 306.593 571.266 308.989 581.615 308.989C589.948 308.989 598.084 307.104 606.032 303.323C613.974 299.531 620.349 294.104 625.157 287.031L629.323 289.677C622.25 303.567 613.412 314.171 602.802 321.489C592.203 328.807 578.703 332.468 562.302 332.468Z" fill="#0948A2"/>
<path d="M700.837 332.093C690.238 332.093 680.524 330.198 671.691 326.406C662.857 322.614 655.722 316.875 650.295 309.177C644.878 301.484 642.17 292.088 642.17 280.989C642.17 267.864 645.196 256.823 651.253 247.864C657.305 238.906 665.508 232.093 675.857 227.427C686.201 222.75 697.555 220.406 709.92 220.406C714.462 220.406 718.941 220.729 723.357 221.364C727.774 221.989 732.003 223.187 736.045 224.948L739.837 226.468V198.843C739.837 195.052 739.701 190.51 739.441 185.218C739.191 179.916 738.441 175.625 737.191 172.343C735.925 167.802 733.712 163.958 730.545 160.802C727.389 157.635 722.785 156.052 716.732 156.052C709.16 156.052 703.482 158.198 699.691 162.489C695.91 166.781 693.451 171.958 692.316 178.01C691.191 184.067 690.628 189.75 690.628 195.052C690.628 199.093 688.42 202.125 684.003 204.135C679.587 206.151 675.107 207.156 670.566 207.156C666.274 207.156 662.045 206.213 657.878 204.323C653.712 202.437 651.628 199.468 651.628 195.427C651.628 184.083 655.029 175.13 661.837 168.573C668.654 162.005 677.175 157.333 687.399 154.552C697.618 151.776 707.654 150.385 717.503 150.385C735.92 150.385 750.738 154.677 761.962 163.26C773.196 171.833 778.816 185.583 778.816 204.51V300.281C778.816 301.046 778.816 301.75 778.816 302.385C778.816 303.01 778.816 303.698 778.816 304.448C778.816 305.213 778.878 306.041 779.003 306.927C779.128 307.802 779.321 308.614 779.587 309.364C780.087 310.88 780.899 312.333 782.024 313.718C783.16 315.109 784.993 315.802 787.524 315.802C790.3 315.802 792.951 314.921 795.482 313.156L798.503 316.948C794.462 321.739 789.597 325.213 783.92 327.364C778.253 329.5 772.133 330.573 765.566 330.573C760.774 330.573 756.42 329.562 752.503 327.552C748.597 325.526 745.508 322.489 743.232 318.448L741.732 315.427L739.066 317.698C734.024 323.005 728.217 326.729 721.649 328.864C715.092 331.015 708.154 332.093 700.837 332.093ZM683.045 282.489C683.045 288.296 683.8 294.484 685.316 301.052C686.826 307.609 689.67 313.156 693.837 317.698C698.003 322.239 704.118 324.51 712.191 324.51C715.982 324.51 720.024 323.567 724.316 321.677C728.607 319.791 732.264 317.083 735.295 313.552C738.321 310.01 739.837 305.968 739.837 301.427V231.76L737.941 231.01C736.175 230.26 734.217 229.76 732.066 229.51C729.925 229.25 727.842 229.114 725.816 229.114C715.467 229.114 707.139 231.708 700.837 236.885C694.529 242.052 689.988 248.739 687.212 256.948C684.43 265.145 683.045 273.656 683.045 282.489Z" fill="#0948A2"/>
<path d="M804.917 173.093L862.084 154.927V171.198L866.25 167.427C872.802 161.625 880.115 157.333 888.188 154.552C896.271 151.776 904.604 150.385 913.188 150.385C923.532 150.385 933.438 152.093 942.896 155.51C952.365 158.916 959.375 165.406 963.917 174.989L965.813 178.781L968.459 175.364C974.761 166.781 982.709 160.479 992.292 156.448C1001.89 152.406 1011.86 150.385 1022.21 150.385C1038.61 150.385 1051.54 154.364 1061 162.323C1070.47 170.27 1075.21 182.817 1075.21 199.968V301.802C1075.21 315.177 1081.26 321.989 1093.38 322.239V328.677H1018.42V322.239C1030.28 321.989 1036.21 315.177 1036.21 301.802V200.739C1036.21 194.421 1035.13 188.109 1032.98 181.802C1030.84 175.5 1027.44 170.26 1022.77 166.093C1018.1 161.927 1011.86 159.843 1004.04 159.843C997.219 159.843 991.157 161.927 985.854 166.093C980.563 170.26 976.339 175.375 973.188 181.427C970.032 187.484 968.459 193.666 968.459 199.968V301.802C968.459 315.177 974.511 321.989 986.625 322.239V328.677H911.667V322.239C918.235 321.989 922.839 320.229 925.479 316.948C928.131 313.671 929.459 308.625 929.459 301.802V200.739C929.459 189.63 927.188 180.041 922.646 171.968C918.104 163.885 909.271 159.843 896.146 159.843C889.089 159.843 882.969 161.989 877.792 166.281C872.625 170.573 868.714 175.875 866.063 182.177C863.407 188.484 862.084 194.671 862.084 200.739V301.802C862.084 315.177 868.011 321.989 879.875 322.239V328.677H804.917V322.239C817.042 321.989 823.104 315.177 823.104 301.802V200.739C823.104 187.614 817.042 180.671 804.917 179.906V173.093Z" fill="#0948A2"/>
<path d="M1100.16 173.093L1157.33 154.927V301.802C1157.33 315.177 1163.26 321.989 1175.12 322.239V328.677H1100.16V322.239C1112.27 321.989 1118.33 315.177 1118.33 301.802V200.739C1118.33 187.614 1112.27 180.671 1100.16 179.906V173.093ZM1105.45 109.114C1105.45 102.062 1107.97 96.01 1113.02 90.9683C1118.07 85.9163 1124.13 83.385 1131.2 83.385C1138.27 83.385 1144.39 85.9163 1149.56 90.9683C1154.74 96.01 1157.33 102.062 1157.33 109.114C1157.33 116.187 1154.67 122.375 1149.37 127.677C1144.06 132.968 1138.01 135.614 1131.2 135.614C1124.13 135.614 1118.07 132.968 1113.02 127.677C1107.97 122.375 1105.45 116.187 1105.45 109.114Z" fill="#0948A2"/>
<path d="M1179.64 82.6349L1236.81 64.8433V301.802C1236.81 315.177 1242.74 321.989 1254.6 322.239V328.677H1179.64V322.239C1191.75 321.989 1197.81 315.177 1197.81 301.802V110.26C1197.81 97.1349 1191.75 90.1974 1179.64 89.4474V82.6349Z" fill="#0948A2"/>
<path d="M1322.34 332.093C1311.74 332.093 1302.03 330.198 1293.2 326.406C1284.36 322.614 1277.23 316.875 1271.8 309.177C1266.38 301.484 1263.68 292.088 1263.68 280.989C1263.68 267.864 1266.7 256.823 1272.76 247.864C1278.81 238.906 1287.01 232.093 1297.36 227.427C1307.71 222.75 1319.06 220.406 1331.43 220.406C1335.97 220.406 1340.45 220.729 1344.86 221.364C1349.28 221.989 1353.51 223.187 1357.55 224.948L1361.34 226.468V198.843C1361.34 195.052 1361.21 190.51 1360.95 185.218C1360.7 179.916 1359.95 175.625 1358.7 172.343C1357.43 167.802 1355.22 163.958 1352.05 160.802C1348.89 157.635 1344.29 156.052 1338.24 156.052C1330.67 156.052 1324.99 158.198 1321.2 162.489C1317.42 166.781 1314.96 171.958 1313.82 178.01C1312.7 184.067 1312.13 189.75 1312.13 195.052C1312.13 199.093 1309.93 202.125 1305.51 204.135C1301.09 206.151 1296.61 207.156 1292.07 207.156C1287.78 207.156 1283.55 206.213 1279.38 204.323C1275.22 202.437 1273.13 199.468 1273.13 195.427C1273.13 184.083 1276.54 175.13 1283.34 168.573C1290.16 162.005 1298.68 157.333 1308.9 154.552C1319.12 151.776 1329.16 150.385 1339.01 150.385C1357.43 150.385 1372.24 154.677 1383.47 163.26C1394.7 171.833 1400.32 185.583 1400.32 204.51V300.281C1400.32 301.046 1400.32 301.75 1400.32 302.385C1400.32 303.01 1400.32 303.698 1400.32 304.448C1400.32 305.213 1400.38 306.041 1400.51 306.927C1400.63 307.802 1400.83 308.614 1401.09 309.364C1401.59 310.88 1402.4 312.333 1403.53 313.718C1404.67 315.109 1406.5 315.802 1409.03 315.802C1411.81 315.802 1414.46 314.921 1416.99 313.156L1420.01 316.948C1415.97 321.739 1411.1 325.213 1405.43 327.364C1399.76 329.5 1393.64 330.573 1387.07 330.573C1382.28 330.573 1377.93 329.562 1374.01 327.552C1370.1 325.526 1367.01 322.489 1364.74 318.448L1363.24 315.427L1360.57 317.698C1355.53 323.005 1349.72 326.729 1343.15 328.864C1336.6 331.015 1329.66 332.093 1322.34 332.093ZM1304.55 282.489C1304.55 288.296 1305.31 294.484 1306.82 301.052C1308.33 307.609 1311.18 313.156 1315.34 317.698C1319.51 322.239 1325.62 324.51 1333.7 324.51C1337.49 324.51 1341.53 323.567 1345.82 321.677C1350.11 319.791 1353.77 317.083 1356.8 313.552C1359.83 310.01 1361.34 305.968 1361.34 301.427V231.76L1359.45 231.01C1357.68 230.26 1355.72 229.76 1353.57 229.51C1351.43 229.25 1349.35 229.114 1347.32 229.114C1336.97 229.114 1328.64 231.708 1322.34 236.885C1316.04 242.052 1311.49 248.739 1308.72 256.948C1305.94 265.145 1304.55 273.656 1304.55 282.489Z" fill="#0948A2"/>
<path d="M479.406 366.212L536.573 348.42V513.462H545.656L582.76 481.649C584.771 479.889 587.229 477.556 590.135 474.649C593.036 471.748 595.62 468.535 597.885 465.004C600.161 461.462 601.302 458.056 601.302 454.774C601.302 451.248 600.286 448.602 598.26 446.837C596.245 445.076 594.104 443.811 591.844 443.045V436.233H652.781V442.67C647.224 443.17 640.974 445.566 634.031 449.858C627.099 454.149 620.354 458.951 613.802 464.254C606.219 469.795 599.078 475.535 592.385 481.462C585.703 487.394 580.349 491.998 576.323 495.274L574.427 497.17L638.406 586.899C641.932 591.691 645.781 595.92 649.948 599.587C654.115 603.243 659.349 605.316 665.656 605.816V612.254H582.76V605.816C585.021 605.816 587.036 605.311 588.802 604.295C590.313 603.545 591.703 602.477 592.969 601.087C594.229 599.701 594.865 597.873 594.865 595.608C594.865 594.347 594.604 593.144 594.094 592.004C593.594 590.868 593.094 589.79 592.594 588.774C592.094 587.774 591.521 586.899 590.885 586.149C590.26 585.389 589.688 584.498 589.177 583.483L543.01 519.504H536.573V585.379C536.573 598.754 542.5 605.566 554.365 605.816V612.254H479.406V605.816C491.516 605.566 497.573 598.754 497.573 585.379V393.837C497.573 380.712 491.516 373.774 479.406 373.024V366.212Z" fill="#0948A2"/>
<path d="M754.961 616.045C736.794 616.045 721.716 612.077 709.732 604.129C697.742 596.17 688.784 585.254 682.857 571.379C676.924 557.493 673.961 541.712 673.961 524.045C673.961 506.379 676.924 490.795 682.857 477.295C688.784 463.795 697.742 453.201 709.732 445.504C721.716 437.811 736.794 433.962 754.961 433.962C782.471 433.962 802.919 442.29 816.294 458.941C829.669 475.597 836.357 497.295 836.357 524.045C836.357 541.712 833.388 557.493 827.461 571.379C821.529 585.254 812.57 596.17 800.586 604.129C788.596 612.077 773.388 616.045 754.961 616.045ZM715.232 524.045C715.232 530.618 715.607 538.764 716.357 548.483C717.117 558.191 718.758 567.847 721.273 577.441C723.799 587.024 727.773 595.035 733.19 601.462C738.617 607.894 745.878 611.108 754.961 611.108C764.305 611.108 771.628 607.894 776.919 601.462C782.221 595.035 786.195 587.024 788.836 577.441C791.487 567.847 793.19 558.191 793.94 548.483C794.701 538.764 795.086 530.618 795.086 524.045C795.086 517.243 794.773 509.108 794.148 499.649C793.523 490.181 791.883 480.774 789.232 471.441C786.576 462.097 782.596 454.332 777.294 448.149C772.003 441.972 764.555 438.879 754.961 438.879C745.628 438.879 738.305 441.972 733.003 448.149C727.711 454.332 723.799 462.097 721.273 471.441C718.758 480.774 717.117 490.243 716.357 499.837C715.607 509.42 715.232 517.493 715.232 524.045Z" fill="#0948A2"/>
<path d="M988.133 612.254H847.32L953.695 441.92L948.758 442.295C934.883 442.795 922.513 444.311 911.654 446.837C900.805 449.352 891.346 454.082 883.279 461.024C875.206 467.972 868.138 478.504 862.07 492.629H855.654L865.862 436.233H1002.9L898.049 606.191H902.966C918.102 605.941 931.284 604.811 942.508 602.795C953.742 600.769 963.591 596.29 972.049 589.358C980.508 582.415 988.013 571.248 994.57 555.858H1001.01L988.133 612.254Z" fill="#0948A2"/>
<path d="M1069.5 615.67C1058.9 615.67 1049.19 613.774 1040.36 609.983C1031.52 606.191 1024.39 600.452 1018.96 592.754C1013.54 585.061 1010.83 575.665 1010.83 564.566C1010.83 551.441 1013.86 540.399 1019.92 531.441C1025.97 522.483 1034.17 515.67 1044.52 511.004C1054.87 506.327 1066.22 503.983 1078.58 503.983C1083.13 503.983 1087.61 504.306 1092.02 504.941C1096.44 505.566 1100.67 506.764 1104.71 508.524L1108.5 510.045V482.42C1108.5 478.629 1108.37 474.087 1108.11 468.795C1107.86 463.493 1107.11 459.201 1105.86 455.92C1104.59 451.379 1102.38 447.535 1099.21 444.379C1096.05 441.212 1091.45 439.629 1085.4 439.629C1077.82 439.629 1072.15 441.774 1068.36 446.066C1064.57 450.358 1062.12 455.535 1060.98 461.587C1059.86 467.644 1059.29 473.326 1059.29 478.629C1059.29 482.67 1057.08 485.701 1052.67 487.712C1048.25 489.728 1043.77 490.733 1039.23 490.733C1034.94 490.733 1030.71 489.79 1026.54 487.899C1022.38 486.014 1020.29 483.045 1020.29 479.004C1020.29 467.66 1023.69 458.707 1030.5 452.149C1037.32 445.582 1045.84 440.91 1056.06 438.129C1066.28 435.353 1076.32 433.962 1086.17 433.962C1104.58 433.962 1119.4 438.254 1130.63 446.837C1141.86 455.41 1147.48 469.16 1147.48 488.087V583.858C1147.48 584.623 1147.48 585.327 1147.48 585.962C1147.48 586.587 1147.48 587.274 1147.48 588.024C1147.48 588.79 1147.54 589.618 1147.67 590.504C1147.79 591.379 1147.99 592.191 1148.25 592.941C1148.75 594.457 1149.56 595.91 1150.69 597.295C1151.82 598.686 1153.66 599.379 1156.19 599.379C1158.97 599.379 1161.62 598.498 1164.15 596.733L1167.17 600.524C1163.13 605.316 1158.26 608.79 1152.58 610.941C1146.92 613.077 1140.8 614.149 1134.23 614.149C1129.44 614.149 1125.08 613.139 1121.17 611.129C1117.26 609.103 1114.17 606.066 1111.9 602.024L1110.4 599.004L1107.73 601.274C1102.69 606.582 1096.88 610.306 1090.31 612.441C1083.76 614.592 1076.82 615.67 1069.5 615.67ZM1051.71 566.066C1051.71 571.873 1052.47 578.061 1053.98 584.629C1055.49 591.186 1058.33 596.733 1062.5 601.274C1066.67 605.816 1072.78 608.087 1080.86 608.087C1084.65 608.087 1088.69 607.144 1092.98 605.254C1097.27 603.368 1100.93 600.66 1103.96 597.129C1106.99 593.587 1108.5 589.545 1108.5 585.004V515.337L1106.61 514.587C1104.84 513.837 1102.88 513.337 1100.73 513.087C1098.59 512.827 1096.51 512.691 1094.48 512.691C1084.13 512.691 1075.8 515.285 1069.5 520.462C1063.19 525.629 1058.65 532.316 1055.88 540.524C1053.1 548.722 1051.71 557.233 1051.71 566.066Z" fill="#0948A2"/>
<path d="M1173.21 366.212L1230.37 348.42V513.462H1239.46L1276.56 481.649C1278.57 479.889 1281.03 477.556 1283.94 474.649C1286.84 471.748 1289.42 468.535 1291.69 465.004C1293.96 461.462 1295.1 458.056 1295.1 454.774C1295.1 451.248 1294.09 448.602 1292.06 446.837C1290.05 445.076 1287.9 443.811 1285.64 443.045V436.233H1346.58V442.67C1341.02 443.17 1334.77 445.566 1327.83 449.858C1320.9 454.149 1314.15 458.951 1307.6 464.254C1300.02 469.795 1292.88 475.535 1286.19 481.462C1279.5 487.394 1274.15 491.998 1270.12 495.274L1268.23 497.17L1332.21 586.899C1335.73 591.691 1339.58 595.92 1343.75 599.587C1347.92 603.243 1353.15 605.316 1359.46 605.816V612.254H1276.56V605.816C1278.82 605.816 1280.84 605.311 1282.6 604.295C1284.11 603.545 1285.5 602.477 1286.77 601.087C1288.03 599.701 1288.67 597.873 1288.67 595.608C1288.67 594.347 1288.4 593.144 1287.89 592.004C1287.39 590.868 1286.89 589.79 1286.39 588.774C1285.89 587.774 1285.32 586.899 1284.69 586.149C1284.06 585.389 1283.49 584.498 1282.98 583.483L1236.81 519.504H1230.37V585.379C1230.37 598.754 1236.3 605.566 1248.17 605.816V612.254H1173.21V605.816C1185.32 605.566 1191.37 598.754 1191.37 585.379V393.837C1191.37 380.712 1185.32 373.774 1173.21 373.024V366.212Z" fill="#0948A2"/>
<path d="M1423.78 615.67C1413.18 615.67 1403.47 613.774 1394.64 609.983C1385.8 606.191 1378.67 600.452 1373.24 592.754C1367.82 585.061 1365.12 575.665 1365.12 564.566C1365.12 551.441 1368.14 540.399 1374.2 531.441C1380.25 522.483 1388.45 515.67 1398.8 511.004C1409.15 506.327 1420.5 503.983 1432.87 503.983C1437.41 503.983 1441.89 504.306 1446.3 504.941C1450.72 505.566 1454.95 506.764 1458.99 508.524L1462.78 510.045V482.42C1462.78 478.629 1462.65 474.087 1462.39 468.795C1462.14 463.493 1461.39 459.201 1460.14 455.92C1458.87 451.379 1456.66 447.535 1453.49 444.379C1450.33 441.212 1445.73 439.629 1439.68 439.629C1432.1 439.629 1426.43 441.774 1422.64 446.066C1418.85 450.358 1416.4 455.535 1415.26 461.587C1414.14 467.644 1413.57 473.326 1413.57 478.629C1413.57 482.67 1411.37 485.701 1406.95 487.712C1402.53 489.728 1398.05 490.733 1393.51 490.733C1389.22 490.733 1384.99 489.79 1380.82 487.899C1376.66 486.014 1374.57 483.045 1374.57 479.004C1374.57 467.66 1377.97 458.707 1384.78 452.149C1391.6 445.582 1400.12 440.91 1410.34 438.129C1420.56 435.353 1430.6 433.962 1440.45 433.962C1458.87 433.962 1473.68 438.254 1484.91 446.837C1496.14 455.41 1501.76 469.16 1501.76 488.087V583.858C1501.76 584.623 1501.76 585.327 1501.76 585.962C1501.76 586.587 1501.76 587.274 1501.76 588.024C1501.76 588.79 1501.82 589.618 1501.95 590.504C1502.07 591.379 1502.27 592.191 1502.53 592.941C1503.03 594.457 1503.84 595.91 1504.97 597.295C1506.1 598.686 1507.94 599.379 1510.47 599.379C1513.25 599.379 1515.9 598.498 1518.43 596.733L1521.45 600.524C1517.41 605.316 1512.54 608.79 1506.87 610.941C1501.2 613.077 1495.08 614.149 1488.51 614.149C1483.72 614.149 1479.37 613.139 1475.45 611.129C1471.54 609.103 1468.45 606.066 1466.18 602.024L1464.68 599.004L1462.01 601.274C1456.97 606.582 1451.16 610.306 1444.59 612.441C1438.04 614.592 1431.1 615.67 1423.78 615.67ZM1405.99 566.066C1405.99 571.873 1406.75 578.061 1408.26 584.629C1409.77 591.186 1412.62 596.733 1416.78 601.274C1420.95 605.816 1427.06 608.087 1435.14 608.087C1438.93 608.087 1442.97 607.144 1447.26 605.254C1451.55 603.368 1455.21 600.66 1458.24 597.129C1461.27 593.587 1462.78 589.545 1462.78 585.004V515.337L1460.89 514.587C1459.12 513.837 1457.16 513.337 1455.01 513.087C1452.87 512.827 1450.79 512.691 1448.76 512.691C1438.41 512.691 1430.08 515.285 1423.78 520.462C1417.47 525.629 1412.93 532.316 1410.16 540.524C1407.38 548.722 1405.99 557.233 1405.99 566.066Z" fill="#0948A2"/>
</g>
<mask id="mask2_3316_1644" style="mask-type:luminance" maskUnits="userSpaceOnUse" x="475" y="642" width="1092" height="153">
<path d="M1566.02 642.185H475.354V794.185H1566.02V642.185Z" fill="white"/>
</mask>
<g mask="url(#mask2_3316_1644)">
<path d="M477.781 756.423C479.724 756.339 481.437 755.792 482.927 754.777C484.411 753.751 485.156 752.006 485.156 749.548V685.152C485.156 682.683 484.411 680.917 482.927 679.86C481.437 678.808 479.724 678.23 477.781 678.131V676.11C482.698 676.11 487.573 676.089 492.406 676.048C497.25 676.006 502.135 675.985 507.052 675.985C509.771 675.985 512.745 676.068 515.969 676.235C519.188 676.402 522.031 676.871 524.49 677.631C529.5 679.079 533.302 681.943 535.885 686.235C538.469 690.516 539.76 695.246 539.76 700.423C539.76 705.589 538.469 710.318 535.885 714.61C533.302 718.902 529.5 721.813 524.49 723.339C522.792 723.839 520.865 724.204 518.698 724.423C516.531 724.631 514.302 724.777 512.01 724.86C509.729 724.943 507.49 724.964 505.281 724.923C503.073 724.881 501.031 724.86 499.156 724.86L498.281 724.735V749.548C498.281 752.006 498.995 753.751 500.427 754.777C501.87 755.792 503.573 756.339 505.531 756.423V758.589H477.781V756.423ZM498.281 722.443H499.156C500.349 722.443 501.667 722.443 503.115 722.443C504.557 722.443 506.083 722.402 507.698 722.318C509.224 722.235 510.729 722.068 512.219 721.818C513.703 721.558 514.995 721.167 516.094 720.652C518.552 719.558 520.5 717.86 521.948 715.568C523.391 713.277 524.406 710.777 524.99 708.068C525.583 705.35 525.885 702.839 525.885 700.548C525.885 698.173 525.583 695.631 524.99 692.923C524.406 690.204 523.391 687.673 521.948 685.339C520.5 683.006 518.51 681.287 515.969 680.173C514.854 679.673 513.557 679.318 512.073 679.11C510.599 678.891 509.099 678.735 507.573 678.652C506.042 678.485 504.557 678.402 503.115 678.402C501.667 678.402 500.349 678.402 499.156 678.402H498.281V722.443Z" fill="#CE1469"/>
<path d="M542.826 748.923C542.743 748.839 542.701 748.751 542.701 748.652L544.993 731.485L546.889 731.735C547.316 734.876 548.357 738.016 550.014 741.152C551.665 744.292 553.722 747.11 556.18 749.61C558.649 752.11 561.436 754.126 564.535 755.652C567.628 757.183 570.831 757.943 574.139 757.943C578.123 757.943 581.623 756.693 584.639 754.193C587.649 751.693 589.16 748.277 589.16 743.943C589.16 741.068 588.415 738.548 586.93 736.381C585.441 734.214 583.576 732.329 581.326 730.714C579.076 729.105 576.805 727.704 574.514 726.506C573.149 725.745 571.79 725.001 570.43 724.277C569.081 723.558 567.686 722.813 566.243 722.048C562.503 720.105 558.956 718.006 555.597 715.756C552.248 713.506 549.535 710.897 547.451 707.923C545.378 704.954 544.347 701.391 544.347 697.235C544.347 692.058 545.722 687.813 548.472 684.506C551.232 681.204 554.774 678.745 559.097 677.131C563.43 675.522 567.936 674.714 572.618 674.714C574.894 674.714 577.498 674.933 580.43 675.36C583.357 675.777 586.18 676.433 588.889 677.318C591.607 678.209 593.816 679.417 595.514 680.943C595.597 681.027 595.722 681.152 595.889 681.318C596.066 681.485 596.243 681.662 596.41 681.839C596.576 682.006 596.701 682.214 596.785 682.464L598.951 700.173H596.66C595.727 697.704 594.415 695.089 592.722 692.339C591.024 689.579 589.076 686.985 586.868 684.568C584.66 682.152 582.191 680.204 579.472 678.714C576.764 677.23 573.92 676.485 570.951 676.485C567.045 676.485 563.712 677.631 560.951 679.923C558.201 682.214 556.826 685.48 556.826 689.714C556.826 692.87 557.545 695.589 558.993 697.881C560.436 700.162 562.305 702.173 564.597 703.923C566.889 705.662 569.222 707.209 571.597 708.568C572.941 709.417 574.316 710.204 575.722 710.923C577.123 711.647 578.503 712.391 579.868 713.152C583.686 715.183 587.269 717.318 590.618 719.568C593.962 721.818 596.701 724.433 598.826 727.402C600.951 730.376 602.014 733.938 602.014 738.089C602.014 740.897 601.415 743.568 600.222 746.11C598.607 749.766 596.253 752.589 593.16 754.589C590.061 756.579 586.623 757.954 582.847 758.714C579.066 759.475 575.316 759.86 571.597 759.86C568.706 759.86 565.54 759.516 562.097 758.839C558.665 758.162 555.337 757.147 552.118 755.798C548.894 754.438 546.222 752.735 544.097 750.693C544.014 750.527 543.878 750.36 543.701 750.193C543.535 750.027 543.368 749.813 543.201 749.548C542.951 749.298 542.826 749.089 542.826 748.923Z" fill="#CE1469"/>
<path d="M606.339 676.11H634.089V678.131C632.131 678.23 630.427 678.808 628.985 679.86C627.552 680.917 626.839 682.683 626.839 685.152V749.548C626.839 752.006 627.552 753.751 628.985 754.777C630.427 755.792 632.131 756.339 634.089 756.423V758.589H606.339V756.423C608.282 756.339 609.995 755.792 611.485 754.777C612.969 753.751 613.714 752.006 613.714 749.548V685.152C613.714 682.683 612.969 680.917 611.485 679.86C609.995 678.808 608.282 678.23 606.339 678.131V676.11Z" fill="#CE1469"/>
<path d="M638.414 717.61C638.414 709.209 640.003 701.787 643.185 695.339C646.362 688.881 650.945 683.834 656.935 680.193C662.919 676.542 670.112 674.714 678.518 674.714C683.086 674.714 687.622 675.355 692.122 676.631C696.622 677.897 700.612 680.016 704.102 682.985C704.185 683.068 704.372 683.266 704.664 683.568C704.966 683.86 705.289 684.173 705.622 684.506C705.789 684.673 705.977 684.85 706.185 685.027C706.404 685.193 706.56 685.36 706.643 685.527C706.727 685.61 706.768 685.673 706.768 685.714C706.768 685.756 706.81 685.818 706.893 685.902C707.32 688.277 707.664 690.631 707.914 692.964C708.164 695.298 708.461 697.704 708.81 700.173H706.518C704.56 696.355 702.279 692.662 699.685 689.089C697.102 685.522 694.023 682.589 690.456 680.298C686.898 678.006 682.664 676.86 677.747 676.86C673.924 676.86 670.591 677.839 667.747 679.798C664.914 681.745 662.518 684.292 660.56 687.443C658.602 690.584 657.023 694.001 655.831 697.693C654.648 701.376 653.779 705.042 653.227 708.693C652.685 712.35 652.414 715.568 652.414 718.36C652.414 721.251 652.685 724.438 653.227 727.923C653.779 731.397 654.648 734.855 655.831 738.298C657.023 741.73 658.602 744.891 660.56 747.777C662.518 750.652 664.893 752.964 667.685 754.714C670.487 756.454 673.758 757.318 677.497 757.318C681.565 757.318 685.169 756.495 688.31 754.839C691.445 753.188 694.206 751.006 696.581 748.298C698.956 745.579 701.029 742.584 702.81 739.318C704.602 736.042 706.128 732.792 707.393 729.568H709.685C709.352 732.459 709.07 735.329 708.852 738.173C708.643 741.006 708.331 743.829 707.914 746.631C707.747 746.964 707.664 747.131 707.664 747.131C707.581 747.298 707.466 747.495 707.331 747.714C707.206 747.923 707.06 748.11 706.893 748.277C703.419 752.433 698.961 755.443 693.518 757.318C688.086 759.178 682.747 760.11 677.497 760.11C668.747 760.11 661.482 758.334 655.706 754.777C649.94 751.209 645.612 746.245 642.727 739.881C639.852 733.522 638.414 726.1 638.414 717.61Z" fill="#CE1469"/>
<path d="M712.363 716.839C712.363 711.162 713.061 705.792 714.467 700.735C715.868 695.683 718.009 691.204 720.884 687.298C723.77 683.397 727.426 680.329 731.842 678.089C736.259 675.839 741.473 674.714 747.488 674.714C755.556 674.714 762.155 676.626 767.28 680.443C772.415 684.251 776.238 689.318 778.738 695.652C781.249 701.975 782.509 708.912 782.509 716.464C782.509 722.063 781.806 727.475 780.405 732.693C778.999 737.902 776.853 742.548 773.967 746.631C771.077 750.704 767.426 753.923 763.009 756.298C758.603 758.673 753.348 759.86 747.238 759.86C741.207 759.86 735.988 758.693 731.572 756.36C727.165 754.027 723.54 750.85 720.697 746.818C717.863 742.792 715.764 738.188 714.405 733.006C713.04 727.829 712.363 722.438 712.363 716.839ZM726.238 716.964C726.238 719.423 726.363 722.397 726.613 725.881C726.874 729.355 727.41 732.938 728.217 736.631C729.02 740.329 730.186 743.787 731.717 747.006C733.243 750.23 735.28 752.839 737.822 754.839C740.363 756.829 743.54 757.818 747.363 757.818C751.181 757.818 754.363 756.829 756.905 754.839C759.457 752.839 761.52 750.23 763.092 747.006C764.66 743.787 765.848 740.308 766.655 736.568C767.457 732.834 767.988 729.23 768.238 725.756C768.499 722.272 768.634 719.298 768.634 716.839C768.634 714.381 768.499 711.438 768.238 708.006C767.988 704.563 767.457 701.016 766.655 697.36C765.848 693.709 764.681 690.313 763.155 687.173C761.624 684.037 759.582 681.496 757.03 679.548C754.488 677.589 751.306 676.61 747.488 676.61C743.665 676.61 740.488 677.589 737.947 679.548C735.405 681.496 733.348 684.037 731.78 687.173C730.207 690.313 729.02 693.709 728.217 697.36C727.41 701.016 726.874 704.584 726.613 708.068C726.363 711.542 726.238 714.506 726.238 716.964ZM743.426 667.568L749.655 651.923H760.488L745.197 667.568H743.426Z" fill="#CE1469"/>
<path d="M784.92 676.11H812.67V678.131C810.712 678.23 809.008 678.808 807.566 679.86C806.118 680.917 805.399 682.683 805.399 685.152L805.67 756.548H816.607C820.592 756.548 824.555 756.001 828.503 754.902C832.462 753.792 836.071 752.048 839.337 749.673C842.597 747.298 845.16 744.162 847.024 740.256L849.066 740.381L844.107 758.589H784.92V756.423C786.863 756.339 788.576 755.792 790.066 754.777C791.55 753.751 792.295 752.006 792.295 749.548V685.152C792.295 682.683 791.55 680.917 790.066 679.86C788.576 678.808 786.863 678.23 784.92 678.131V676.11Z" fill="#CE1469"/>
<path d="M852.763 716.839C852.763 711.162 853.455 705.792 854.846 700.735C856.247 695.683 858.393 691.204 861.284 687.298C864.169 683.397 867.815 680.329 872.221 678.089C876.638 675.839 881.856 674.714 887.888 674.714C895.955 674.714 902.554 676.626 907.679 680.443C912.815 684.251 916.638 689.318 919.138 695.652C921.638 701.975 922.888 708.912 922.888 716.464C922.888 722.063 922.185 727.475 920.784 732.693C919.393 737.902 917.252 742.548 914.367 746.631C911.476 750.704 907.825 753.923 903.409 756.298C899.002 758.673 893.747 759.86 887.638 759.86C881.606 759.86 876.388 758.693 871.971 756.36C867.565 754.027 863.94 750.85 861.096 746.818C858.247 742.792 856.143 738.188 854.784 733.006C853.435 727.829 852.763 722.438 852.763 716.839ZM866.638 716.964C866.638 719.423 866.763 722.397 867.013 725.881C867.263 729.355 867.789 732.938 868.596 736.631C869.398 740.329 870.565 743.787 872.096 747.006C873.622 750.23 875.659 752.839 878.2 754.839C880.752 756.829 883.94 757.818 887.763 757.818C891.58 757.818 894.763 756.829 897.304 754.839C899.856 752.839 901.919 750.23 903.492 747.006C905.06 743.787 906.247 740.308 907.054 736.568C907.856 732.834 908.388 729.23 908.638 725.756C908.888 722.272 909.013 719.298 909.013 716.839C909.013 714.381 908.888 711.438 908.638 708.006C908.388 704.563 907.856 701.016 907.054 697.36C906.247 693.709 905.08 690.313 903.554 687.173C902.023 684.037 899.981 681.495 897.429 679.548C894.888 677.589 891.705 676.61 887.888 676.61C884.065 676.61 880.888 677.589 878.346 679.548C875.804 681.495 873.742 684.037 872.159 687.173C870.586 690.313 869.398 693.709 868.596 697.36C867.789 701.016 867.263 704.584 867.013 708.068C866.763 711.542 866.638 714.506 866.638 716.964Z" fill="#CE1469"/>
<path d="M967.835 760.381C954.845 760.381 944.72 756.777 937.46 749.568C930.21 742.35 926.585 732.204 926.585 719.131C926.585 710.298 928.215 702.558 931.481 695.902C934.741 689.235 939.491 684.063 945.731 680.381C951.981 676.688 959.554 674.839 968.46 674.839C972.793 674.839 977.22 675.391 981.752 676.485C986.293 677.584 990.09 679.709 993.147 682.86C993.147 682.86 993.231 682.943 993.397 683.11C993.575 683.277 993.71 683.443 993.793 683.61C993.96 683.693 994.064 683.787 994.106 683.881C994.147 683.964 994.21 684.048 994.293 684.131L996.21 699.652H994.168C993.835 698.558 993.366 697.48 992.772 696.423C992.174 695.355 991.585 694.397 991.002 693.548C989.377 690.745 987.418 688.089 985.127 685.589C982.845 683.089 980.241 681.037 977.314 679.423C974.382 677.798 971.132 676.985 967.564 676.985C963.658 676.985 960.22 677.881 957.252 679.673C954.293 681.454 951.731 683.829 949.564 686.798C947.397 689.772 945.653 693.042 944.335 696.61C943.028 700.167 942.054 703.751 941.418 707.36C940.778 710.959 940.46 714.287 940.46 717.339C940.46 722.105 940.944 726.86 941.918 731.61C942.887 736.36 944.543 740.688 946.877 744.589C949.21 748.495 952.304 751.631 956.168 754.006C960.028 756.381 964.804 757.568 970.502 757.568C972.444 757.568 974.585 757.402 976.918 757.068C979.252 756.725 981.397 756.209 983.356 755.527L983.981 755.277V731.089C983.981 728.548 983.174 726.792 981.564 725.818C979.95 724.834 978.174 724.298 976.231 724.214V722.048H1004.36V724.214C1002.41 724.214 1000.72 724.772 999.272 725.881C997.825 726.98 997.106 728.756 997.106 731.214V750.318C993.116 754.141 988.616 756.772 983.606 758.214C978.606 759.657 973.345 760.381 967.835 760.381Z" fill="#CE1469"/>
<path d="M1035.67 758.589H1006.65V756.423C1009.96 756.173 1012.74 755.079 1014.99 753.131C1017.24 751.173 1018.99 748.709 1020.26 745.735L1049.67 676.11H1053.24L1083.78 749.423C1084.71 751.798 1085.93 753.542 1087.47 754.652C1088.99 755.751 1090.94 756.339 1093.32 756.423V758.589H1062.53V756.548C1064.05 756.381 1065.64 756.027 1067.3 755.485C1068.95 754.933 1069.78 753.631 1069.78 751.589C1069.78 751.079 1069.74 750.568 1069.65 750.068C1069.57 749.558 1069.44 749.131 1069.28 748.798L1059.86 726.131H1031.34L1023.69 744.964C1023.44 745.563 1023.26 746.266 1023.13 747.068C1023.01 747.876 1022.94 748.579 1022.94 749.173C1022.94 751.464 1023.64 753.121 1025.03 754.131C1026.43 755.147 1028.12 755.808 1030.11 756.11C1032.11 756.402 1033.97 756.548 1035.67 756.548V758.589ZM1045.47 691.631L1032.24 724.089H1058.97L1045.47 691.631Z" fill="#CE1469"/>
<path d="M1119.29 717.61C1119.29 709.209 1120.88 701.787 1124.06 695.339C1127.24 688.881 1131.82 683.834 1137.81 680.193C1143.8 676.542 1150.99 674.714 1159.4 674.714C1163.96 674.714 1168.5 675.355 1173 676.631C1177.5 677.897 1181.49 680.016 1184.98 682.985C1185.06 683.068 1185.25 683.266 1185.54 683.568C1185.85 683.86 1186.17 684.173 1186.5 684.506C1186.67 684.673 1186.86 684.85 1187.06 685.027C1187.28 685.193 1187.44 685.36 1187.52 685.527C1187.61 685.61 1187.65 685.673 1187.65 685.714C1187.65 685.756 1187.69 685.818 1187.77 685.902C1188.2 688.277 1188.54 690.631 1188.79 692.964C1189.04 695.298 1189.34 697.704 1189.69 700.173H1187.4C1185.44 696.355 1183.16 692.662 1180.56 689.089C1177.98 685.522 1174.9 682.589 1171.33 680.298C1167.78 678.006 1163.54 676.86 1158.63 676.86C1154.8 676.86 1151.47 677.839 1148.63 679.798C1145.79 681.745 1143.4 684.292 1141.44 687.443C1139.48 690.584 1137.9 694.001 1136.71 697.693C1135.53 701.376 1134.66 705.042 1134.11 708.693C1133.56 712.35 1133.29 715.568 1133.29 718.36C1133.29 721.251 1133.56 724.438 1134.11 727.923C1134.66 731.397 1135.53 734.855 1136.71 738.298C1137.9 741.73 1139.48 744.891 1141.44 747.777C1143.4 750.652 1145.77 752.964 1148.56 754.714C1151.37 756.454 1154.64 757.318 1158.38 757.318C1162.44 757.318 1166.05 756.495 1169.19 754.839C1172.32 753.188 1175.08 751.006 1177.46 748.298C1179.83 745.579 1181.91 742.584 1183.69 739.318C1185.48 736.042 1187.01 732.792 1188.27 729.568H1190.56C1190.23 732.459 1189.95 735.329 1189.73 738.173C1189.52 741.006 1189.21 743.829 1188.79 746.631C1188.63 746.964 1188.54 747.131 1188.54 747.131C1188.46 747.298 1188.35 747.495 1188.21 747.714C1188.08 747.923 1187.94 748.11 1187.77 748.277C1184.3 752.433 1179.84 755.443 1174.4 757.318C1168.96 759.178 1163.63 760.11 1158.38 760.11C1149.63 760.11 1142.36 758.334 1136.58 754.777C1130.82 751.209 1126.49 746.245 1123.61 739.881C1120.73 733.522 1119.29 726.1 1119.29 717.61Z" fill="#CE1469"/>
<path d="M1191.85 676.11H1219.6V678.131C1217.64 678.23 1215.94 678.808 1214.49 679.86C1213.04 680.917 1212.33 682.683 1212.33 685.152L1212.6 756.548H1223.53C1227.52 756.548 1231.48 756.001 1235.43 754.902C1239.39 753.792 1243 752.048 1246.26 749.673C1249.52 747.298 1252.09 744.162 1253.95 740.256L1255.99 740.381L1251.03 758.589H1191.85V756.423C1193.79 756.339 1195.5 755.792 1196.99 754.777C1198.48 753.751 1199.22 752.006 1199.22 749.548V685.152C1199.22 682.683 1198.48 680.917 1196.99 679.86C1195.5 678.808 1193.79 678.23 1191.85 678.131V676.11Z" fill="#CE1469"/>
<path d="M1258.92 676.11H1286.67V678.131C1284.72 678.23 1283.03 678.808 1281.59 679.86C1280.14 680.917 1279.42 682.683 1279.42 685.152V749.548C1279.42 752.006 1280.14 753.751 1281.59 754.777C1283.03 755.792 1284.72 756.339 1286.67 756.423V758.589H1258.92V756.423C1260.88 756.339 1262.59 755.792 1264.06 754.777C1265.55 753.751 1266.29 752.006 1266.29 749.548V685.152C1266.29 682.683 1265.55 680.917 1264.06 679.86C1262.59 678.808 1260.88 678.23 1258.92 678.131V676.11ZM1268.34 667.568L1274.59 651.923H1285.4L1270.13 667.568H1268.34Z" fill="#CE1469"/>
<path d="M1290.23 758.589V756.548C1293.36 756.381 1295.88 755.6 1297.79 754.193C1299.7 752.792 1300.66 750.23 1300.66 746.506V683.11L1300.41 682.86C1299.23 681.667 1297.86 680.626 1296.29 679.735C1294.72 678.85 1293.04 678.36 1291.25 678.277V676.11H1312.12L1355.29 736.568V688.193C1355.29 685.485 1354.63 683.433 1353.31 682.027C1351.99 680.626 1350.33 679.652 1348.33 679.11C1346.34 678.558 1344.37 678.23 1342.41 678.131V676.11H1368.14V678.131C1365.08 678.23 1362.52 678.98 1360.43 680.381C1358.35 681.772 1357.31 684.376 1357.31 688.193V758.589H1354.89L1302.7 685.652V746.506C1302.7 749.131 1303.36 751.167 1304.68 752.61C1306 754.058 1307.65 755.058 1309.64 755.61C1311.64 756.152 1313.61 756.464 1315.56 756.548V758.589H1290.23Z" fill="#CE1469"/>
<path d="M1371.83 676.11H1399.58V678.131C1397.62 678.23 1395.91 678.808 1394.47 679.86C1393.04 680.917 1392.33 682.683 1392.33 685.152V749.548C1392.33 752.006 1393.04 753.751 1394.47 754.777C1395.91 755.792 1397.62 756.339 1399.58 756.423V758.589H1371.83V756.423C1373.77 756.339 1375.48 755.792 1376.97 754.777C1378.46 753.751 1379.2 752.006 1379.2 749.548V685.152C1379.2 682.683 1378.46 680.917 1376.97 679.86C1375.48 678.808 1373.77 678.23 1371.83 678.131V676.11Z" fill="#CE1469"/>
<path d="M1403.9 717.61C1403.9 709.209 1405.49 701.787 1408.67 695.339C1411.85 688.881 1416.43 683.834 1422.42 680.193C1428.41 676.542 1435.6 674.714 1444 674.714C1448.57 674.714 1453.11 675.355 1457.61 676.631C1462.11 677.897 1466.1 680.016 1469.59 682.985C1469.67 683.068 1469.86 683.266 1470.15 683.568C1470.45 683.86 1470.78 684.173 1471.11 684.506C1471.28 684.673 1471.46 684.85 1471.67 685.027C1471.89 685.193 1472.05 685.36 1472.13 685.527C1472.21 685.61 1472.25 685.673 1472.25 685.714C1472.25 685.756 1472.3 685.818 1472.38 685.902C1472.81 688.277 1473.15 690.631 1473.4 692.964C1473.65 695.298 1473.95 697.704 1474.3 700.173H1472C1470.05 696.355 1467.76 692.662 1465.17 689.089C1462.59 685.522 1459.51 682.589 1455.94 680.298C1452.38 678.006 1448.15 676.86 1443.23 676.86C1439.41 676.86 1436.08 677.839 1433.23 679.798C1430.4 681.745 1428 684.292 1426.05 687.443C1424.09 690.584 1422.51 694.001 1421.32 697.693C1420.13 701.376 1419.26 705.042 1418.71 708.693C1418.17 712.35 1417.9 715.568 1417.9 718.36C1417.9 721.251 1418.17 724.438 1418.71 727.923C1419.26 731.397 1420.13 734.855 1421.32 738.298C1422.51 741.73 1424.09 744.891 1426.05 747.777C1428 750.652 1430.38 752.964 1433.17 754.714C1435.97 756.454 1439.24 757.318 1442.98 757.318C1447.05 757.318 1450.66 756.495 1453.8 754.839C1456.93 753.188 1459.69 751.006 1462.07 748.298C1464.44 745.579 1466.51 742.584 1468.3 739.318C1470.09 736.042 1471.61 732.792 1472.88 729.568H1475.17C1474.84 732.459 1474.56 735.329 1474.34 738.173C1474.13 741.006 1473.82 743.829 1473.4 746.631C1473.23 746.964 1473.15 747.131 1473.15 747.131C1473.07 747.298 1472.95 747.495 1472.82 747.714C1472.69 747.923 1472.55 748.11 1472.38 748.277C1468.91 752.433 1464.45 755.443 1459 757.318C1453.57 759.178 1448.23 760.11 1442.98 760.11C1434.23 760.11 1426.97 758.334 1421.19 754.777C1415.43 751.209 1411.1 746.245 1408.21 739.881C1405.34 733.522 1403.9 726.1 1403.9 717.61Z" fill="#CE1469"/>
<path d="M1505.22 758.589H1476.2V756.423C1479.51 756.173 1482.29 755.079 1484.54 753.131C1486.79 751.173 1488.54 748.709 1489.81 745.735L1519.22 676.11H1522.79L1553.33 749.423C1554.26 751.798 1555.49 753.542 1557.02 754.652C1558.54 755.751 1560.5 756.339 1562.87 756.423V758.589H1532.08V756.548C1533.61 756.381 1535.19 756.027 1536.85 755.485C1538.5 754.933 1539.33 753.631 1539.33 751.589C1539.33 751.079 1539.29 750.568 1539.2 750.068C1539.12 749.558 1539 749.131 1538.83 748.798L1529.41 726.131H1500.89L1493.25 744.964C1493 745.563 1492.81 746.266 1492.68 747.068C1492.56 747.876 1492.5 748.579 1492.5 749.173C1492.5 751.464 1493.19 753.121 1494.58 754.131C1495.98 755.147 1497.67 755.808 1499.66 756.11C1501.66 756.402 1503.52 756.548 1505.22 756.548V758.589ZM1515.02 691.631L1501.79 724.089H1528.52L1515.02 691.631Z" fill="#CE1469"/>
</g>
<mask id="mask3_3316_1644" style="mask-type:luminance" maskUnits="userSpaceOnUse" x="475" y="752" width="545" height="111">
<path d="M1019.35 752.852H475.354V862.185H1019.35V752.852Z" fill="white"/>
</mask>
<g mask="url(#mask3_3316_1644)">
<path d="M510.177 838.652C504.286 838.652 499.125 837.381 494.698 834.839C490.281 832.298 486.89 828.855 484.531 824.506C482.166 820.162 480.989 815.319 480.989 809.985C480.989 804.709 482.244 799.933 484.76 795.652C487.271 791.376 490.75 788.006 495.198 785.548C499.64 783.089 504.635 781.86 510.177 781.86C515.093 781.86 519.562 782.829 523.593 784.756C527.619 786.688 530.937 789.516 533.552 793.235L529.26 796.485C526.937 793.418 524.156 791.089 520.906 789.506C517.666 787.923 514.114 787.131 510.239 787.131C505.974 787.131 502.041 788.126 498.448 790.11C494.849 792.1 491.979 794.86 489.843 798.402C487.703 801.944 486.635 805.959 486.635 810.444C486.635 814.86 487.677 818.834 489.76 822.36C491.854 825.876 494.724 828.641 498.364 830.652C502.015 832.668 506.078 833.673 510.552 833.673C514.312 833.673 517.791 832.918 520.989 831.402C524.182 829.891 527.036 827.652 529.552 824.694L533.843 827.944C531.078 831.459 527.666 834.126 523.614 835.944C519.573 837.746 515.093 838.652 510.177 838.652Z" fill="#2668C7"/>
<path d="M560.175 783.214C566.352 783.214 570.977 784.501 574.05 787.069C577.118 789.626 578.654 793.141 578.654 797.61C578.654 800.834 577.868 803.527 576.3 805.694C574.743 807.85 572.555 809.464 569.738 810.548C566.93 811.631 563.644 812.173 559.883 812.173L579.404 837.36H572.696L553.529 812.173H550.154V837.36H544.717V783.214H560.175ZM559.883 806.902C564.05 806.902 567.269 806.147 569.55 804.631C571.842 803.121 572.988 800.777 572.988 797.61C572.988 794.85 572.008 792.641 570.05 790.985C568.092 789.319 565.154 788.485 561.238 788.485H550.154V806.902H559.883Z" fill="#2668C7"/>
<path d="M603.993 783.214C609.978 783.214 614.691 784.272 618.139 786.381C621.582 788.496 623.306 792.235 623.306 797.61C623.306 803.1 621.504 806.897 617.91 809.006C614.311 811.121 609.519 812.173 603.535 812.173H594.806V837.36H589.368V783.214H603.993ZM603.764 806.902C606.681 806.902 609.144 806.641 611.16 806.11C613.17 805.584 614.754 804.641 615.91 803.277C617.061 801.917 617.639 800.027 617.639 797.61C617.639 794.194 616.472 791.819 614.139 790.485C611.806 789.152 608.545 788.485 604.368 788.485H594.806V806.902H603.764Z" fill="#2668C7"/>
<path d="M648.279 814.735V819.256H627.987V814.735H648.279Z" fill="#2668C7"/>
<path d="M671.424 838.714C665.142 838.714 660.491 836.319 657.465 831.527C654.45 826.725 652.944 819.621 652.944 810.214C652.944 804.329 653.642 799.256 655.049 795.006C656.465 790.756 658.554 787.506 661.319 785.256C664.08 782.996 667.45 781.86 671.424 781.86C675.241 781.86 678.533 782.933 681.299 785.069C684.059 787.194 686.2 790.381 687.715 794.631C689.226 798.881 689.986 804.079 689.986 810.214C689.986 816.298 689.226 821.48 687.715 825.756C686.2 830.022 684.059 833.251 681.299 835.444C678.533 837.621 675.241 838.714 671.424 838.714ZM671.424 833.735C674.09 833.735 676.413 832.871 678.403 831.131C680.387 829.397 681.929 826.772 683.028 823.256C684.137 819.746 684.694 815.397 684.694 810.214C684.694 805.089 684.137 800.777 683.028 797.277C681.929 793.777 680.387 791.168 678.403 789.444C676.413 787.709 674.09 786.839 671.424 786.839C667.007 786.839 663.7 788.954 661.507 793.173C659.325 797.397 658.236 803.079 658.236 810.214C658.236 817.548 659.299 823.308 661.424 827.485C663.559 831.652 666.892 833.735 671.424 833.735Z" fill="#2668C7"/>
<path d="M725.645 819.485H732.208V824.756H725.645V837.36H720.229V824.756H694.729V824.319L724.52 781.86H725.645V819.485ZM704.312 819.485H720.229V797.006L704.312 819.485Z" fill="#2668C7"/>
<path d="M780.176 781.86H785.843L763.364 844.756H757.718L780.176 781.86Z" fill="#2668C7"/>
<path d="M838.195 807.652C841.247 808.959 843.706 810.855 845.57 813.339C847.43 815.829 848.362 818.808 848.362 822.277C848.362 825.141 847.659 827.819 846.258 830.319C844.852 832.808 842.758 834.819 839.966 836.36C837.174 837.886 833.841 838.652 829.966 838.652C826.091 838.652 822.758 837.886 819.966 836.36C817.174 834.819 815.076 832.808 813.674 830.319C812.268 827.819 811.57 825.141 811.57 822.277C811.57 818.808 812.497 815.829 814.362 813.339C816.221 810.855 818.68 808.959 821.737 807.652C819.18 806.391 817.247 804.777 815.945 802.819C814.638 800.86 813.987 798.626 813.987 796.11C813.987 793.6 814.643 791.251 815.966 789.069C817.299 786.876 819.174 785.126 821.591 783.819C824.008 782.516 826.799 781.86 829.966 781.86C833.133 781.86 835.924 782.516 838.341 783.819C840.758 785.126 842.622 786.876 843.945 789.069C845.279 791.251 845.945 793.6 845.945 796.11C845.945 798.626 845.289 800.86 843.987 802.819C842.68 804.777 840.747 806.391 838.195 807.652ZM829.966 787.131C827.799 787.131 825.935 787.537 824.383 788.339C822.826 789.147 821.643 790.23 820.841 791.589C820.034 792.938 819.633 794.444 819.633 796.11C819.633 797.876 820.117 799.475 821.091 800.902C822.076 802.334 823.362 803.438 824.945 804.214C826.529 804.996 828.201 805.381 829.966 805.381C831.727 805.381 833.404 804.996 834.987 804.214C836.57 803.438 837.846 802.334 838.82 800.902C839.805 799.475 840.299 797.876 840.299 796.11C840.299 794.444 839.893 792.938 839.091 791.589C838.284 790.23 837.102 789.147 835.549 788.339C833.992 787.537 832.133 787.131 829.966 787.131ZM829.966 833.673C832.633 833.673 834.956 833.147 836.945 832.089C838.93 831.037 840.451 829.641 841.508 827.902C842.56 826.168 843.091 824.293 843.091 822.277C843.091 820.069 842.518 818.063 841.383 816.256C840.258 814.438 838.701 813.001 836.716 811.944C834.727 810.891 832.477 810.36 829.966 810.36C827.451 810.36 825.201 810.891 823.216 811.944C821.227 813.001 819.664 814.438 818.529 816.256C817.404 818.063 816.841 820.069 816.841 822.277C816.841 824.293 817.367 826.168 818.424 827.902C819.477 829.641 820.997 831.037 822.987 832.089C824.971 833.147 827.299 833.673 829.966 833.673Z" fill="#2668C7"/>
<path d="M873.417 805.694C876.376 805.694 879.063 806.412 881.48 807.839C883.896 809.272 885.777 811.246 887.126 813.756C888.485 816.272 889.167 819.084 889.167 822.194C889.167 825.266 888.438 828.058 886.98 830.569C885.521 833.084 883.506 835.069 880.938 836.527C878.381 837.985 875.49 838.714 872.271 838.714C869.063 838.714 866.209 837.996 863.709 836.569C861.219 835.141 859.282 833.168 857.896 830.652C856.521 828.141 855.834 825.319 855.834 822.194C855.834 819.683 856.334 817.183 857.334 814.694C858.344 812.209 859.881 809.433 861.938 806.36L878.459 781.86L882.834 784.714L868.271 806.506C869.782 805.964 871.501 805.694 873.417 805.694ZM872.501 833.444C874.61 833.444 876.532 832.98 878.271 832.048C880.006 831.121 881.376 829.813 882.376 828.131C883.386 826.438 883.896 824.459 883.896 822.194C883.896 819.891 883.428 817.871 882.501 816.131C881.568 814.397 880.251 813.058 878.542 812.11C876.834 811.152 874.818 810.673 872.501 810.673C870.344 810.673 868.402 811.188 866.667 812.214C864.928 813.246 863.568 814.652 862.584 816.444C861.61 818.225 861.126 820.141 861.126 822.194C861.126 824.459 861.626 826.444 862.626 828.152C863.626 829.86 864.99 831.173 866.73 832.089C868.464 832.996 870.386 833.444 872.501 833.444Z" fill="#2668C7"/>
<path d="M913.305 838.714C907.024 838.714 902.373 836.319 899.347 831.527C896.331 826.725 894.826 819.621 894.826 810.214C894.826 804.329 895.524 799.256 896.93 795.006C898.347 790.756 900.436 787.506 903.201 785.256C905.962 782.996 909.331 781.86 913.305 781.86C917.123 781.86 920.415 782.933 923.18 785.069C925.941 787.194 928.081 790.381 929.597 794.631C931.107 798.881 931.868 804.079 931.868 810.214C931.868 816.298 931.107 821.48 929.597 825.756C928.081 830.022 925.941 833.251 923.18 835.444C920.415 837.621 917.123 838.714 913.305 838.714ZM913.305 833.735C915.972 833.735 918.295 832.871 920.285 831.131C922.269 829.397 923.811 826.772 924.91 823.256C926.019 819.746 926.576 815.397 926.576 810.214C926.576 805.089 926.019 800.777 924.91 797.277C923.811 793.777 922.269 791.168 920.285 789.444C918.295 787.709 915.972 786.839 913.305 786.839C908.889 786.839 905.581 788.954 903.389 793.173C901.206 797.397 900.118 803.079 900.118 810.214C900.118 817.548 901.18 823.308 903.305 827.485C905.441 831.652 908.774 833.735 913.305 833.735Z" fill="#2668C7"/>
<path d="M955.09 838.714C948.809 838.714 944.158 836.319 941.132 831.527C938.117 826.725 936.611 819.621 936.611 810.214C936.611 804.329 937.309 799.256 938.715 795.006C940.132 790.756 942.221 787.506 944.986 785.256C947.747 782.996 951.117 781.86 955.09 781.86C958.908 781.86 962.2 782.933 964.965 785.069C967.726 787.194 969.867 790.381 971.382 794.631C972.893 798.881 973.653 804.079 973.653 810.214C973.653 816.298 972.893 821.48 971.382 825.756C969.867 830.022 967.726 833.251 964.965 835.444C962.2 837.621 958.908 838.714 955.09 838.714ZM955.09 833.735C957.757 833.735 960.08 832.871 962.07 831.131C964.054 829.397 965.596 826.772 966.695 823.256C967.804 819.746 968.361 815.397 968.361 810.214C968.361 805.089 967.804 800.777 966.695 797.277C965.596 793.777 964.054 791.168 962.07 789.444C960.08 787.709 957.757 786.839 955.09 786.839C950.674 786.839 947.367 788.954 945.174 793.173C942.992 797.397 941.903 803.079 941.903 810.214C941.903 817.548 942.965 823.308 945.09 827.485C947.226 831.652 950.559 833.735 955.09 833.735Z" fill="#2668C7"/>
<path d="M1005.33 807.652C1008.39 808.959 1010.84 810.855 1012.71 813.339C1014.57 815.829 1015.5 818.808 1015.5 822.277C1015.5 825.141 1014.8 827.819 1013.4 830.319C1011.99 832.808 1009.9 834.819 1007.1 836.36C1004.31 837.886 1000.98 838.652 997.104 838.652C993.229 838.652 989.896 837.886 987.104 836.36C984.312 834.819 982.213 832.808 980.812 830.319C979.406 827.819 978.708 825.141 978.708 822.277C978.708 818.808 979.635 815.829 981.5 813.339C983.359 810.855 985.817 808.959 988.875 807.652C986.317 806.391 984.385 804.777 983.083 802.819C981.776 800.86 981.125 798.626 981.125 796.11C981.125 793.6 981.781 791.251 983.104 789.069C984.437 786.876 986.312 785.126 988.729 783.819C991.146 782.516 993.937 781.86 997.104 781.86C1000.27 781.86 1003.06 782.516 1005.48 783.819C1007.9 785.126 1009.76 786.876 1011.08 789.069C1012.42 791.251 1013.08 793.6 1013.08 796.11C1013.08 798.626 1012.43 800.86 1011.12 802.819C1009.82 804.777 1007.89 806.391 1005.33 807.652ZM997.104 787.131C994.937 787.131 993.073 787.537 991.521 788.339C989.963 789.147 988.781 790.23 987.979 791.589C987.172 792.938 986.771 794.444 986.771 796.11C986.771 797.876 987.255 799.475 988.229 800.902C989.213 802.334 990.5 803.438 992.083 804.214C993.666 804.996 995.338 805.381 997.104 805.381C998.864 805.381 1000.54 804.996 1002.12 804.214C1003.71 803.438 1004.98 802.334 1005.96 800.902C1006.94 799.475 1007.44 797.876 1007.44 796.11C1007.44 794.444 1007.03 792.938 1006.23 791.589C1005.42 790.23 1004.24 789.147 1002.69 788.339C1001.13 787.537 999.271 787.131 997.104 787.131ZM997.104 833.673C999.771 833.673 1002.09 833.147 1004.08 832.089C1006.07 831.037 1007.59 829.641 1008.65 827.902C1009.7 826.168 1010.23 824.293 1010.23 822.277C1010.23 820.069 1009.66 818.063 1008.52 816.256C1007.4 814.438 1005.84 813.001 1003.85 811.944C1001.86 810.891 999.614 810.36 997.104 810.36C994.588 810.36 992.338 810.891 990.354 811.944C988.364 813.001 986.802 814.438 985.666 816.256C984.541 818.063 983.979 820.069 983.979 822.277C983.979 824.293 984.505 826.168 985.562 827.902C986.614 829.641 988.135 831.037 990.125 832.089C992.109 833.147 994.437 833.673 997.104 833.673Z" fill="#2668C7"/>
</g>
</svg>
