<svg width="1612" height="814" viewBox="0 0 1612 814" fill="none" xmlns="http://www.w3.org/2000/svg">
<path d="M210.563 443.344C219.849 445.641 229.271 447.005 238.828 447.432C239.907 443.802 241.193 440.005 242.735 435.979C250.896 414.479 244.443 395.854 233.745 384.625C227.75 378.359 220.443 374.354 213.63 373.615C212.032 373.359 210.433 373.339 208.834 373.547C207.229 373.76 205.688 374.193 204.214 374.849C202.735 375.505 201.386 376.354 200.157 377.406C198.927 378.453 197.87 379.656 196.99 381.01C190.948 390.203 189.886 408.094 199.625 437.349C200.344 439.542 204.417 441.578 210.636 443.307M500.224 234.453C498.433 231.062 496.177 228.016 493.464 225.312C490.75 222.609 487.698 220.365 484.302 218.583C473.448 212.932 458.313 211.583 438.078 216.495C414.646 222.161 399.203 236.354 392.131 250.885C389.401 256.271 387.917 261.974 387.683 268.005C387.558 270.448 387.802 272.849 388.417 275.208C389.032 277.573 389.99 279.792 391.292 281.854C394.719 286.99 400.625 290.328 409.078 290.672C429.125 291.495 443.474 289.099 456.037 282.646C468.604 276.187 479.578 265.526 492.776 249.963C496.532 245.432 498.99 240.286 500.157 234.521L500.224 234.453ZM325.604 248.354C327.5 244.443 328.86 240.354 329.683 236.088C330.511 231.823 330.771 227.521 330.469 223.187C330.334 221.734 330.125 220.297 329.854 218.859C329.427 222.25 328.761 225.594 327.849 228.891C327.36 230.75 326.677 232.536 325.813 234.255C324.943 235.974 323.901 237.578 322.693 239.073C321.479 240.568 320.131 241.922 318.631 243.13C317.136 244.338 315.526 245.38 313.813 246.25C316.177 246.463 318.521 246.812 320.849 247.292C322.474 247.719 324.016 247.995 325.521 248.422L325.604 248.354ZM265.688 301.698C260.245 304.151 254.917 306.432 249.698 308.547C255.063 311.292 260.552 313.75 266.167 315.922C267.563 316.474 268.948 316.984 270.328 317.463C268.407 312.338 266.854 307.109 265.672 301.766L265.688 301.698ZM279.933 295.088C276.151 296.906 272.401 298.667 268.719 300.344C270.042 306.588 271.87 312.682 274.198 318.63L274.302 318.901C283.203 321.896 292.334 323.766 301.693 324.516C312.735 325.286 322.797 323.797 330.792 319.38C343.823 312.208 351.459 297.125 349.011 270.984C348.24 262.922 339.167 256.005 327.318 252.156L326.464 253.766C317.683 269.854 301.573 284.802 279.917 295.156L279.933 295.088ZM104.151 334C104.526 334.104 104.907 334.224 105.297 334.307C106.985 334.75 108.698 335.052 110.433 335.219C108.328 334.859 106.203 334.463 104.151 334ZM83.3336 297.073C84.568 284.703 87.6617 272.818 92.6149 261.417C76.8128 270.557 68.2711 282.594 67.2243 294.182C66.9326 297.615 67.2868 300.984 68.2868 304.281C69.2868 307.578 70.8597 310.578 73.0107 313.271C77.1409 318.359 82.1774 322.292 88.1097 325.068C87.6982 324.344 87.3076 323.609 86.9482 322.859C83.6253 315.823 82.5472 306.901 83.3336 297.073ZM309.927 206.224C309.693 220.068 306.959 233.396 301.724 246.213C303.146 246.094 304.568 246.01 306.006 245.974C315.235 243.271 322.37 237.297 324.834 228.12C326.511 222.042 327.136 215.854 326.719 209.562C324.459 204.901 321.474 200.755 317.766 197.135C314.636 194.073 311.214 191.391 307.495 189.088C309.188 194.672 309.995 200.385 309.927 206.224ZM294.86 260.047C288.542 270.078 278.766 277.729 267.214 283.365C267.006 287.958 267.297 292.526 268.084 297.057C271.511 295.484 274.933 293.875 278.526 292.177C299.552 282.115 315.146 267.682 323.537 252.292L324.068 251.297C322.818 250.974 321.568 250.682 320.282 250.427C315.735 249.495 311.141 249.068 306.5 249.141C305.818 249.328 305.131 249.5 304.427 249.656C302.938 250 301.433 250.26 299.912 250.443C298.448 253.76 296.766 256.963 294.86 260.047ZM267.573 279.562C277.844 274.292 286.401 267.286 292.12 258.318C293.631 255.901 294.985 253.401 296.193 250.818C295.339 250.818 294.485 250.818 293.61 250.818C290.162 251.63 286.901 252.922 283.839 254.693C280.771 256.463 278.026 258.646 275.599 261.229C273.354 263.802 271.547 266.651 270.177 269.776C268.808 272.906 267.938 276.167 267.573 279.562ZM221.948 295.141C211.354 296.146 200.761 296.083 190.177 294.953C189.677 298.062 188.693 301.016 187.229 303.802C183.193 311.286 175.505 316.146 161.229 323.677C154.183 327.437 146.912 330.698 139.417 333.453C166.125 332.323 200.292 324.896 242.131 308.271C235.11 304.344 228.386 299.969 221.948 295.141ZM242.714 291.838C237.396 293.073 232.026 294.01 226.604 294.661C232.808 299.052 239.256 303.047 245.948 306.646C252.146 304.125 258.511 301.391 265.037 298.443C264.209 293.917 263.839 289.354 263.927 284.75C257.073 287.771 250.006 290.13 242.714 291.838ZM130.141 255.885C129.797 254.995 129.505 254.088 129.229 253.198C127.86 253.198 126.511 253.198 125.172 253.302C114.563 253.745 104.63 255.526 97.2034 259.021C91.4899 271.198 87.943 283.984 86.568 297.365C85.8336 306.646 86.8076 315 89.8753 321.505C90.9222 323.745 92.2711 325.786 93.917 327.635L94.667 327.906C105.459 331.599 116.558 333.495 127.964 333.588C139.073 330.646 149.662 326.391 159.719 320.838C173.417 313.63 180.745 309.026 184.37 302.312C185.646 299.88 186.505 297.307 186.943 294.594C180.177 293.755 173.573 292.229 167.136 290.005C147.255 282.812 135.448 270.437 130.141 255.833V255.885ZM132.62 253.198C132.792 253.729 132.979 254.26 133.167 254.776C138.183 268.469 149.365 280.177 168.214 286.974C174.479 289.115 180.896 290.583 187.469 291.375C187.974 284.177 187.974 276.984 187.469 269.786C187.443 269.177 187.287 268.609 186.99 268.073C184.766 263.797 176.12 259.859 164.735 257.052C154.198 254.562 143.516 253.26 132.688 253.146L132.62 253.198ZM128.735 219.318C129.198 217.333 129.761 215.349 130.448 213.365C128.412 215.177 126.407 217.057 124.401 219.01C114.063 229.479 105.683 241.333 99.2555 254.568C107.615 251.713 116.209 250.187 125.037 249.995C126.13 249.995 127.245 249.911 128.36 249.896C127.224 244.844 126.688 239.734 126.755 234.557C126.818 229.385 127.479 224.286 128.735 219.266V219.318ZM135.292 209.135C133.901 212.698 132.761 216.338 131.87 220.057C130.636 224.958 130.005 229.932 129.969 234.99C129.933 240.042 130.5 245.026 131.662 249.948C143.094 250.021 154.37 251.37 165.49 254.005C177.745 257.016 187.162 261.521 189.849 266.672C190.354 267.62 190.63 268.63 190.688 269.703C191.177 277.078 191.141 284.448 190.589 291.818C199.755 292.776 208.938 292.922 218.13 292.266C199.677 277.51 186.698 260.338 186.172 245.172C185.177 216.359 189.302 195.526 201.969 183.161C207.089 178.25 213.058 174.828 219.88 172.891C210.677 174.302 201.61 176.318 192.677 178.937C182.183 181.948 172.104 185.99 162.438 191.068C152.776 196.146 143.724 202.151 135.292 209.083V209.135ZM275.516 162.276C275.558 163.547 275.401 164.792 275.052 166.01C278.427 166.073 281.74 166.562 284.99 167.49C288.235 168.417 291.308 169.745 294.209 171.469C296.646 173.026 298.823 174.891 300.729 177.062C302.641 179.229 304.209 181.625 305.438 184.24C310.782 187.109 315.631 190.661 319.974 194.891C321.839 196.729 323.547 198.698 325.11 200.797C317.563 173.833 285.891 158.458 255.266 146.24L253.979 147.161C261.839 148.615 267.094 150.755 270.412 153.271C271.922 154.281 273.12 155.573 274.021 157.151C274.917 158.724 275.417 160.417 275.516 162.229V162.276ZM271.698 165.891C272.115 164.74 272.313 163.552 272.282 162.328C272.193 161 271.818 159.76 271.146 158.609C270.474 157.458 269.578 156.516 268.464 155.792C265.037 153.24 259.459 151.115 250.677 149.797C249.209 151.099 247.844 152.505 246.584 154.01C243.266 157.963 240.776 162.38 239.104 167.26C249.75 166.37 260.62 165.974 271.698 165.891ZM272.521 171.469C272.229 171.932 271.901 172.396 271.563 172.838C281.459 174.552 290.995 177.448 300.167 181.536C298.104 178.557 295.542 176.099 292.479 174.161C289.657 172.495 286.662 171.24 283.5 170.391C280.334 169.536 277.115 169.125 273.839 169.141C273.448 169.948 273.011 170.724 272.521 171.469ZM267.964 172.224C268.62 171.427 269.235 170.594 269.797 169.724L270.157 169.141C262.078 169.213 254.089 169.49 246.188 169.984C253.485 170.271 260.729 171.016 267.933 172.224H267.964ZM255.537 185.354C249.11 186.599 242.688 186.599 236.261 185.354C235.886 210.057 246.792 227.177 261.084 237.177C267.625 241.708 274.787 244.802 282.568 246.453C286.063 247.198 289.594 247.588 293.167 247.635L295.084 247.187C296.042 247 297.016 246.812 298.011 246.661C303.485 233.74 306.339 220.271 306.568 206.24C306.672 199.75 305.563 193.469 303.229 187.411C303.11 187.099 302.974 186.776 302.839 186.469C292.157 181.078 280.901 177.479 269.078 175.667C264.37 180.953 258.052 184.963 255.537 185.354ZM236.365 182.068C240.953 183.266 247.099 183.422 255.042 182.172C256.907 181.865 261.412 179.036 265.313 175.099C256.078 173.578 246.782 172.969 237.427 173.271C236.86 175.974 236.5 178.708 236.344 181.469L236.365 182.068ZM225.953 179.583C224.839 178.286 223.974 176.838 223.37 175.24C219.776 176.052 216.36 177.333 213.115 179.078C209.865 180.818 206.912 182.963 204.25 185.51C192.266 197.167 188.448 217.213 189.422 245.099C189.938 260.115 203.615 277.318 222.771 291.906C229.24 291.26 235.641 290.219 241.979 288.771C249.61 287.031 256.995 284.547 264.131 281.323C264.386 277.24 265.287 273.307 266.839 269.521C268.386 265.734 270.506 262.297 273.188 259.208C276.683 255.385 280.802 252.432 285.547 250.354C284.365 250.167 283.151 249.963 281.969 249.708C273.776 247.932 266.245 244.646 259.37 239.844C243.964 229.182 232.427 210.745 233.11 184.38C230.313 183.401 227.927 181.802 225.953 179.583ZM226.573 174.448C227.042 175.531 227.657 176.516 228.422 177.411C229.756 178.906 231.339 180.047 233.177 180.833C233.354 178.328 233.667 175.844 234.12 173.37C231.584 173.62 229.068 174 226.573 174.521V174.448ZM222.396 165.203C223.375 159.135 225.5 153.495 228.782 148.292C224.943 148.292 220.818 148.292 216.37 148.448C188.755 149.318 164.495 164.745 148.766 185.271C144.568 190.734 140.979 196.573 137.995 202.781C146.052 196.667 154.594 191.344 163.636 186.812C172.672 182.281 182.052 178.615 191.766 175.818C201.755 172.917 211.896 170.734 222.188 169.26C222.157 167.906 222.224 166.552 222.396 165.203ZM232.547 148.427C232.292 148.854 232.016 149.266 231.776 149.698C228.61 154.604 226.552 159.937 225.615 165.703C225.469 166.745 225.401 167.797 225.422 168.854C228.849 168.406 232.271 168.016 235.594 167.687C237.386 161.885 240.24 156.667 244.151 152.026C244.943 151.083 245.761 150.193 246.599 149.338C242.474 148.786 237.818 148.427 232.547 148.427ZM238.917 139.87C237.391 141.583 235.969 143.432 234.688 145.245C239.688 145.396 244.672 145.802 249.631 146.458C250.297 145.896 250.985 145.349 251.703 144.75L241.433 140.792L238.917 139.87ZM347.948 133.995C327.693 122.906 304.771 115.062 286.026 115.062C269.334 115.062 252.813 124.958 241.224 137.318L242.646 137.865C246.651 139.422 250.761 141 254.886 142.625C261.391 138.583 268.37 135.687 275.823 133.927C288.849 130.661 304.104 129.838 320.334 130.828C329.594 131.396 338.797 132.432 347.948 133.948V133.995ZM386.276 157.963C390.61 155.088 395.058 152.297 399.563 149.713C388.282 146.187 376.589 143.036 364.881 140.484C369.037 143.312 372.974 146.219 376.62 149.198C379.995 151.943 383.214 154.859 386.276 157.948V157.963ZM385.813 162.125C380.099 165.974 374.568 169.984 369.245 173.818L364.11 177.479C355.172 183.901 351.938 191.911 352.724 198.5C352.891 200.052 353.302 201.536 353.964 202.948C354.625 204.359 355.495 205.63 356.573 206.755C357.709 207.896 359 208.807 360.453 209.495C361.907 210.177 363.433 210.594 365.032 210.745C372.854 211.599 383.589 207.01 395.11 192.922C396.042 191.797 396.745 190.547 397.235 189.177C397.719 187.802 397.953 186.385 397.938 184.927C397.938 180.203 395.641 174.828 391.636 169.213C389.849 166.724 387.912 164.359 385.813 162.125ZM403.808 151.016C398.672 153.854 393.537 157.005 388.552 160.292C390.61 162.521 392.532 164.87 394.308 167.328C398.703 173.49 401.151 179.5 401.151 184.927C401.177 186.755 400.881 188.536 400.266 190.26C399.657 191.984 398.766 193.552 397.594 194.958C385.25 210.042 373.453 214.922 364.657 213.963C362.683 213.771 360.802 213.255 359.011 212.411C357.219 211.562 355.625 210.437 354.229 209.031C352.896 207.646 351.823 206.088 351.011 204.349C350.193 202.609 349.683 200.786 349.469 198.88C348.547 191.229 352.157 182.031 362.172 174.911L367.308 171.25C372.443 167.484 377.922 163.594 383.506 159.812C380.651 156.963 377.662 154.266 374.532 151.713C368.677 146.958 362.526 142.62 356.078 138.703C344.198 136.365 332.214 134.797 320.131 133.995C304.188 133.021 289.313 133.828 276.558 137.01C270.24 138.51 264.256 140.865 258.599 144.062C292.636 157.76 327.302 175.578 329.886 208.927C331.917 213.401 333.146 218.088 333.568 222.984C333.896 227.526 333.641 232.031 332.802 236.505C331.959 240.979 330.558 245.271 328.604 249.38C341.407 253.625 351.235 261.5 352.11 270.781C354.709 298.396 346.391 314.536 332.25 322.328C323.688 327.052 312.99 328.641 301.349 327.838C292.74 327.161 284.318 325.531 276.078 322.943C277.927 326.385 280.162 329.557 282.776 332.458C299.448 351.292 332.813 365.26 366.797 372.724C400.776 380.187 435.271 381.099 454.36 373.823C457.766 372.609 460.854 370.839 463.62 368.516C484.886 349.682 501.693 314.588 506.063 282.422C507.959 268.432 507.5 255.031 504.006 243.818C503.495 242.104 502.912 240.583 502.292 239.042C500.787 243.823 498.417 248.13 495.188 251.963V252.052C481.719 267.953 470.521 278.807 457.526 285.521C444.412 292.25 429.589 294.745 408.959 293.906C399.354 293.516 392.578 289.609 388.604 283.635C387.104 281.297 385.995 278.786 385.266 276.104C384.537 273.427 384.229 270.698 384.344 267.922C384.604 261.448 386.188 255.323 389.099 249.536C396.547 234.25 412.724 219.354 437.224 213.411C458.334 208.276 474.219 209.766 485.724 215.76C488.792 217.359 491.615 219.318 494.183 221.635C496.75 223.958 498.99 226.562 500.891 229.453C501.172 226.016 501.032 222.588 500.479 219.182C500 216.286 499.271 213.458 498.297 210.693C497.318 207.927 496.104 205.271 494.657 202.719C493.209 200.167 491.552 197.766 489.677 195.505C487.808 193.245 485.756 191.172 483.516 189.276H483.412C469.047 177.068 438.61 162.312 403.808 151.047V151.016ZM445.339 138.463C432.552 138.463 419.901 142.729 407.677 148.927C441.709 160.224 471.256 174.724 485.448 186.588L485.552 186.672C487.948 188.693 490.146 190.911 492.146 193.323C494.146 195.734 495.922 198.302 497.469 201.026C499.016 203.75 500.308 206.594 501.354 209.547C502.396 212.5 503.172 215.526 503.683 218.62C504.532 223.76 504.49 228.896 503.563 234.026C505.006 236.87 506.198 239.812 507.141 242.859C510.766 254.536 511.266 268.401 509.297 282.849C504.844 315.703 487.625 351.615 465.797 370.943C462.729 373.536 459.308 375.505 455.526 376.849C435.938 384.349 400.745 383.474 366.125 375.891C331.511 368.307 297.532 353.979 280.36 334.599C276.823 330.713 273.969 326.375 271.802 321.588C269.506 320.818 267.214 320 264.953 319.109C258.381 316.542 251.974 313.604 245.745 310.292C196.422 330.234 157.339 337.458 128.323 336.74C118.703 338.984 110.813 339.068 104.479 337.406C99.6565 336.213 95.5159 333.838 92.0472 330.286C82.3076 326.484 75.1357 321.25 70.4586 315.187C69.2711 313.703 68.2347 312.12 67.3493 310.437C66.4638 308.755 65.7451 307.005 65.193 305.187C64.6409 303.365 64.2607 301.51 64.0628 299.62C63.8649 297.729 63.844 295.838 64.0055 293.943C65.2243 280.484 75.4795 266.552 94.4795 256.745L94.7555 256.625C101.511 241.693 110.641 228.391 122.146 216.719C125.568 213.292 129.068 210.115 132.636 207.182C136.099 198.604 140.667 190.661 146.334 183.354C162.479 162.125 187.589 146.12 216.266 145.208C221.537 145.042 226.386 145 230.802 145.088C232.318 142.849 233.943 140.693 235.677 138.62C218.063 132.224 200.011 127.463 181.532 124.344C165.505 121.776 149.808 121.036 137.823 123.896H137.74L135.068 124.172L134.724 120.953L137.172 120.698C149.657 117.766 165.693 118.505 182.063 121.125C201.162 124.359 219.808 129.318 237.99 136C250.162 122.63 267.985 111.74 286.042 111.74C307.766 111.74 334.917 122.016 357.344 135.604C372.943 138.708 388.313 142.703 403.448 147.588C416.854 140.38 430.943 135.281 445.354 135.281L445.339 138.463ZM367.068 704.427C366.651 704.01 366.214 703.625 365.75 703.26C365.292 702.891 364.808 702.557 364.308 702.245C363.808 701.937 363.292 701.656 362.761 701.406C362.224 701.156 361.683 700.937 361.125 700.75C360.568 700.557 360 700.406 359.422 700.281C358.849 700.156 358.266 700.068 357.683 700.01C357.094 699.953 356.511 699.932 355.922 699.943C355.334 699.953 354.745 699.995 354.162 700.073C353.578 700.151 353 700.26 352.433 700.406C351.86 700.552 351.302 700.724 350.75 700.932C350.198 701.141 349.662 701.38 349.141 701.651C348.615 701.922 348.11 702.219 347.62 702.547C347.136 702.875 346.667 703.229 346.214 703.609C345.766 703.99 345.344 704.396 344.943 704.828C344.542 705.255 344.162 705.708 343.813 706.182C343.464 706.656 343.141 707.146 342.849 707.656C342.552 708.167 342.292 708.693 342.058 709.229C341.823 709.771 341.62 710.323 341.453 710.885C341.282 711.448 341.141 712.021 341.037 712.599C340.933 713.177 340.86 713.76 340.823 714.349C340.787 714.937 340.782 715.526 340.813 716.115C340.839 716.698 340.901 717.286 341 717.865C341.094 718.448 341.224 719.021 341.386 719.583C341.547 720.151 341.74 720.703 341.969 721.25C342.193 721.792 342.448 722.323 342.735 722.833C343.021 723.349 343.334 723.844 343.677 724.323C344.021 724.802 344.391 725.26 344.787 725.698C345.177 726.13 345.599 726.542 346.042 726.932C346.485 727.318 346.948 727.682 347.433 728.016C347.917 728.349 348.417 728.656 348.938 728.932C349.453 729.214 349.99 729.458 350.537 729.677C351.084 729.891 351.641 730.078 352.209 730.229C352.776 730.38 353.354 730.5 353.933 730.589C354.516 730.672 355.099 730.724 355.688 730.745C356.276 730.766 356.865 730.75 357.453 730.703C358.037 730.656 358.62 730.573 359.198 730.458C359.776 730.344 360.344 730.198 360.901 730.016C361.464 729.839 362.011 729.625 362.547 729.385C363.084 729.141 363.604 728.87 364.11 728.568C364.615 728.266 365.099 727.937 365.568 727.578C366.037 727.219 366.479 726.833 366.907 726.427C367.328 726.016 367.724 725.589 368.099 725.13C368.474 724.677 368.818 724.203 369.141 723.708C369.459 723.214 369.75 722.703 370.011 722.177C370.271 721.646 370.5 721.109 370.698 720.552C370.896 720 371.063 719.437 371.198 718.865C371.334 718.292 371.433 717.714 371.5 717.125C371.573 716.542 371.604 715.958 371.604 715.37C371.61 713.312 371.219 711.339 370.433 709.443C369.646 707.547 368.526 705.875 367.068 704.427ZM356.115 696.641C356.834 696.635 357.552 696.677 358.266 696.755C358.985 696.833 359.693 696.958 360.396 697.12C361.094 697.281 361.787 697.479 362.464 697.719C363.146 697.964 363.808 698.24 364.453 698.557C365.104 698.875 365.729 699.224 366.334 699.615C366.943 700.005 367.526 700.427 368.084 700.88C368.641 701.339 369.172 701.823 369.672 702.339C370.177 702.854 370.646 703.396 371.089 703.969C371.526 704.542 371.933 705.135 372.302 705.75C372.677 706.365 373.011 707.005 373.308 707.656C373.61 708.312 373.87 708.984 374.089 709.672C374.313 710.354 374.495 711.052 374.636 711.755C374.776 712.464 374.881 713.177 374.938 713.896C375 714.609 375.021 715.328 374.995 716.052C374.974 716.771 374.912 717.484 374.808 718.198C374.703 718.911 374.558 719.615 374.375 720.312C374.188 721.01 373.964 721.693 373.698 722.365C373.438 723.031 373.136 723.687 372.797 724.323C372.459 724.958 372.084 725.573 371.672 726.167C371.266 726.76 370.823 727.328 370.349 727.87C369.875 728.411 369.37 728.922 368.839 729.406C368.308 729.891 367.745 730.344 367.162 730.766C366.573 731.187 365.969 731.573 365.339 731.922C364.709 732.271 364.063 732.583 363.396 732.859C362.729 733.135 362.052 733.375 361.36 733.573C360.667 733.771 359.964 733.927 359.256 734.047C358.547 734.167 357.828 734.24 357.11 734.276C356.391 734.312 355.672 734.307 354.953 734.26C354.235 734.214 353.521 734.125 352.813 734C352.104 733.87 351.401 733.703 350.714 733.49C350.026 733.281 349.349 733.036 348.688 732.75C348.026 732.464 347.386 732.141 346.761 731.781C346.136 731.417 345.537 731.026 344.959 730.594C344.381 730.167 343.828 729.703 343.302 729.214C342.776 728.719 342.282 728.198 341.813 727.651C341.349 727.099 340.917 726.526 340.516 725.927C340.115 725.328 339.75 724.708 339.422 724.068C339.094 723.427 338.802 722.771 338.547 722.094C338.292 721.422 338.078 720.734 337.907 720.036C337.729 719.333 337.599 718.63 337.506 717.917C337.412 717.198 337.36 716.484 337.344 715.76C337.334 715.042 337.365 714.323 337.438 713.609C337.506 712.891 337.62 712.182 337.771 711.474C337.927 710.771 338.12 710.078 338.349 709.396C338.584 708.714 338.854 708.047 339.162 707.396C339.469 706.745 339.818 706.115 340.198 705.505C340.578 704.896 340.995 704.307 341.443 703.745C341.891 703.177 342.37 702.641 342.881 702.135C344.631 700.375 346.657 699.021 348.948 698.068C351.24 697.115 353.631 696.641 356.115 696.641ZM363.198 750.667C362.86 750.328 362.506 750.01 362.131 749.714C361.756 749.417 361.365 749.141 360.959 748.891C360.552 748.641 360.131 748.411 359.698 748.203C359.266 748 358.823 747.823 358.37 747.667C357.917 747.516 357.453 747.391 356.99 747.286C356.521 747.187 356.047 747.115 355.573 747.068C355.094 747.021 354.62 747 354.141 747.01C353.662 747.016 353.183 747.052 352.709 747.115C352.235 747.177 351.766 747.266 351.302 747.385C350.839 747.5 350.381 747.641 349.933 747.812C349.485 747.979 349.047 748.172 348.625 748.391C348.198 748.609 347.787 748.854 347.391 749.12C346.99 749.385 346.61 749.672 346.245 749.979C345.881 750.292 345.532 750.62 345.209 750.969C344.881 751.318 344.573 751.687 344.287 752.068C344 752.453 343.74 752.854 343.5 753.266C343.261 753.682 343.047 754.109 342.854 754.547C342.667 754.984 342.5 755.432 342.36 755.891C342.219 756.349 342.11 756.812 342.021 757.286C341.938 757.755 341.875 758.229 341.844 758.708C341.813 759.187 341.808 759.661 341.834 760.141C341.854 760.62 341.907 761.094 341.985 761.568C342.063 762.036 342.167 762.505 342.297 762.964C342.427 763.427 342.584 763.875 342.766 764.318C342.948 764.76 343.157 765.193 343.386 765.609C343.62 766.026 343.875 766.432 344.151 766.823C344.433 767.214 344.729 767.583 345.052 767.937C345.37 768.292 345.714 768.63 346.073 768.948C346.433 769.26 346.808 769.557 347.198 769.828C347.594 770.104 348 770.354 348.422 770.578C348.844 770.807 349.276 771.005 349.719 771.182C350.167 771.359 350.62 771.51 351.078 771.635C351.542 771.76 352.011 771.859 352.485 771.932C352.959 772 353.433 772.047 353.912 772.062C354.391 772.078 354.865 772.068 355.344 772.031C355.818 771.995 356.292 771.927 356.761 771.833C357.235 771.745 357.693 771.625 358.151 771.479C358.61 771.333 359.052 771.161 359.49 770.969C359.927 770.771 360.349 770.552 360.761 770.307C361.172 770.062 361.568 769.792 361.948 769.505C362.328 769.214 362.693 768.901 363.037 768.568C363.381 768.24 363.709 767.891 364.011 767.521C364.318 767.151 364.599 766.766 364.86 766.365C365.12 765.964 365.354 765.547 365.568 765.12C365.782 764.693 365.969 764.25 366.136 763.802C366.297 763.349 366.433 762.896 366.542 762.427C366.651 761.964 366.735 761.49 366.792 761.016C366.849 760.542 366.881 760.062 366.881 759.589C366.886 757.911 366.573 756.302 365.933 754.76C365.297 753.214 364.386 751.849 363.198 750.667ZM354.334 743.818C354.938 743.818 355.537 743.854 356.136 743.922C356.735 743.99 357.328 744.094 357.917 744.234C358.506 744.37 359.084 744.542 359.651 744.745C360.219 744.948 360.771 745.182 361.313 745.448C361.854 745.714 362.381 746.01 362.886 746.339C363.391 746.667 363.881 747.021 364.344 747.401C364.813 747.786 365.256 748.193 365.672 748.63C366.094 749.062 366.485 749.516 366.854 749.995C367.219 750.474 367.558 750.974 367.87 751.49C368.183 752.005 368.459 752.542 368.709 753.089C368.959 753.641 369.172 754.203 369.36 754.776C369.542 755.349 369.693 755.932 369.813 756.526C369.927 757.12 370.011 757.714 370.063 758.312C370.11 758.917 370.125 759.521 370.104 760.12C370.089 760.724 370.032 761.323 369.943 761.922C369.854 762.516 369.735 763.109 369.578 763.687C369.422 764.271 369.229 764.844 369.011 765.406C368.787 765.969 368.537 766.516 368.25 767.047C367.964 767.578 367.651 768.094 367.308 768.589C366.964 769.083 366.594 769.557 366.198 770.01C365.797 770.464 365.375 770.896 364.927 771.302C364.485 771.703 364.016 772.083 363.526 772.432C363.032 772.786 362.526 773.109 361.995 773.401C361.469 773.693 360.927 773.953 360.37 774.187C359.813 774.417 359.245 774.615 358.662 774.781C358.084 774.948 357.495 775.078 356.901 775.177C356.308 775.276 355.709 775.339 355.104 775.37C354.5 775.396 353.901 775.391 353.297 775.354C352.693 775.312 352.099 775.24 351.506 775.13C350.912 775.026 350.323 774.88 349.75 774.708C349.172 774.531 348.604 774.323 348.052 774.083C347.5 773.844 346.959 773.573 346.438 773.271C345.917 772.969 345.412 772.641 344.927 772.281C344.443 771.922 343.979 771.536 343.542 771.125C343.099 770.708 342.683 770.276 342.297 769.812C341.907 769.354 341.542 768.875 341.209 768.37C340.87 767.87 340.568 767.349 340.292 766.812C340.016 766.276 339.771 765.729 339.558 765.161C339.344 764.599 339.167 764.021 339.021 763.437C338.875 762.854 338.761 762.26 338.683 761.661C338.604 761.062 338.558 760.464 338.547 759.859C338.542 759.255 338.563 758.656 338.625 758.057C338.683 757.453 338.776 756.859 338.901 756.271C339.032 755.682 339.193 755.099 339.386 754.531C339.578 753.958 339.808 753.401 340.063 752.854C340.323 752.307 340.61 751.781 340.927 751.266C341.245 750.755 341.594 750.26 341.969 749.792C342.344 749.318 342.745 748.87 343.172 748.443C344.641 746.943 346.344 745.786 348.282 744.974C350.214 744.161 352.235 743.755 354.334 743.75V743.818ZM360.479 793.464C360.032 793.021 359.547 792.62 359.021 792.271C358.5 791.922 357.948 791.625 357.365 791.385C356.782 791.146 356.183 790.964 355.563 790.839C354.943 790.719 354.323 790.656 353.693 790.656C353.063 790.656 352.438 790.719 351.818 790.839C351.198 790.964 350.599 791.146 350.016 791.385C349.433 791.625 348.881 791.922 348.36 792.271C347.834 792.62 347.349 793.021 346.901 793.464C346.459 793.911 346.063 794.401 345.714 794.922C345.365 795.448 345.068 796.005 344.828 796.583C344.589 797.167 344.407 797.771 344.282 798.385C344.162 799.005 344.099 799.63 344.099 800.26C344.099 800.891 344.162 801.516 344.282 802.135C344.407 802.755 344.589 803.354 344.828 803.937C345.068 804.521 345.365 805.073 345.714 805.599C346.063 806.125 346.459 806.609 346.901 807.057C347.349 807.505 347.834 807.901 348.36 808.25C348.886 808.604 349.438 808.896 350.021 809.141C350.604 809.38 351.203 809.562 351.823 809.687C352.443 809.807 353.068 809.87 353.698 809.87C354.328 809.87 354.953 809.807 355.573 809.682C356.188 809.562 356.792 809.38 357.375 809.135C357.959 808.896 358.511 808.599 359.032 808.245C359.558 807.896 360.042 807.5 360.49 807.052C360.933 806.604 361.334 806.12 361.683 805.594C362.032 805.068 362.328 804.516 362.568 803.932C362.813 803.349 362.995 802.75 363.115 802.13C363.24 801.51 363.297 800.885 363.297 800.255C363.297 799.625 363.235 799 363.11 798.38C362.99 797.766 362.808 797.161 362.563 796.578C362.323 796 362.026 795.443 361.672 794.922C361.323 794.396 360.927 793.911 360.479 793.464ZM353.631 787.406C354.12 787.406 354.61 787.432 355.099 787.49C355.589 787.547 356.073 787.63 356.552 787.74C357.026 787.854 357.5 787.99 357.964 788.156C358.427 788.323 358.875 788.516 359.318 788.729C359.756 788.948 360.183 789.187 360.599 789.453C361.011 789.724 361.407 790.01 361.787 790.323C362.167 790.635 362.526 790.969 362.87 791.318C363.214 791.672 363.532 792.042 363.834 792.432C364.131 792.823 364.407 793.229 364.657 793.651C364.912 794.073 365.141 794.505 365.344 794.953C365.547 795.401 365.719 795.859 365.87 796.328C366.021 796.797 366.146 797.271 366.24 797.75C366.339 798.234 366.407 798.719 366.443 799.208C366.485 799.698 366.5 800.187 366.479 800.682C366.464 801.172 366.422 801.661 366.349 802.146C366.276 802.635 366.177 803.115 366.052 803.589C365.922 804.062 365.771 804.526 365.589 804.984C365.407 805.443 365.203 805.885 364.969 806.323C364.74 806.755 364.485 807.172 364.203 807.578C363.922 807.979 363.625 808.37 363.297 808.74C362.974 809.109 362.631 809.458 362.266 809.786C361.901 810.115 361.521 810.427 361.12 810.714C360.724 811 360.308 811.26 359.881 811.5C359.448 811.74 359.006 811.953 358.552 812.141C358.099 812.328 357.636 812.49 357.162 812.625C356.693 812.76 356.214 812.865 355.729 812.948C355.245 813.026 354.756 813.078 354.266 813.104C353.771 813.125 353.282 813.125 352.792 813.089C352.302 813.057 351.813 813 351.334 812.911C350.849 812.823 350.37 812.708 349.901 812.562C349.433 812.422 348.969 812.255 348.521 812.057C348.068 811.865 347.631 811.641 347.203 811.396C346.782 811.151 346.37 810.88 345.974 810.589C345.578 810.297 345.203 809.984 344.844 809.646C344.485 809.312 344.146 808.953 343.828 808.578C343.511 808.203 343.214 807.812 342.943 807.406C342.672 806.995 342.422 806.573 342.198 806.135C341.974 805.698 341.771 805.25 341.599 804.792C341.427 804.333 341.282 803.865 341.162 803.385C341.042 802.911 340.948 802.427 340.886 801.943C340.823 801.453 340.787 800.964 340.776 800.474C340.771 799.979 340.787 799.49 340.839 799C340.886 798.516 340.964 798.031 341.063 797.547C341.167 797.068 341.297 796.594 341.459 796.13C341.615 795.667 341.797 795.208 342.011 794.766C342.219 794.323 342.453 793.891 342.714 793.474C342.974 793.057 343.256 792.656 343.563 792.271C343.865 791.885 344.193 791.521 344.542 791.172C345.756 789.953 347.151 789.021 348.74 788.37C350.328 787.714 351.985 787.396 353.698 787.406H353.631ZM186.823 472.682C113.209 489.359 60.5836 448.854 30.2972 395.75C18.5524 374.974 10.1149 352.927 4.97946 329.62C0.0836223 307.365 -1.21846 286 1.14612 268.146C4.72425 241.213 16.6565 222.266 37.2347 220.484C43.5315 219.937 45.0888 215.792 44.542 209.323C43.7347 203.234 42.4847 197.234 40.792 191.328C37.6097 178.713 33.7763 163.578 34.6826 148.224C37.2815 103.917 79.0055 58.7395 287.62 71.0312C310.558 72.3854 316.209 79.9531 319.511 84.3854C320.776 86.0989 321.568 87.1406 323.229 86.5572C327.266 85.1718 335.761 77.9999 357.464 59.526C364.021 53.9635 371.828 47.3385 382.474 38.3854C401.391 22.4843 430.412 17.4479 461.552 22.1927C471.891 23.8437 482.011 26.3697 491.912 29.7708C501.818 33.1666 511.354 37.3958 520.526 42.4427C530.334 47.7447 539.573 53.9062 548.235 60.9218C556.896 67.9427 564.839 75.6979 572.058 84.1979C598.677 115.833 614.271 158.479 606.292 210.432L606.172 211.24L605.453 211.615C605.266 211.719 602.578 215.042 598.49 220.276C583.594 239.109 550.74 280.437 535.146 284.922C533.693 289.219 536.995 299.385 541.224 312.312C547.573 331.828 555.912 357.49 553.396 381.198C549.047 422.01 512.823 456.526 380.099 442.349C364.912 440.74 353.115 433.172 344.146 427.385C339.573 424.443 335.74 421.979 332.761 421.156C329.782 420.333 327.183 421.667 325.558 427.526C323.433 435.125 315.282 440.604 304.068 444.354C290.599 448.818 272.469 450.859 254.99 451.01C250.297 451.01 245.677 451.01 241.193 450.74C228.558 497.234 255.297 510.396 286.063 525.516C319.532 541.984 357.584 560.714 357.584 624.568V691.604H354.349V624.635C354.349 562.781 317.25 544.536 284.641 528.495C252.646 512.76 224.724 499.068 237.854 450.62C228.344 450.151 218.964 448.76 209.724 446.458C202.469 444.437 197.625 441.714 196.511 438.411C186.427 408.057 187.729 389.214 194.266 379.281C195.297 377.667 196.542 376.229 197.99 374.979C199.443 373.724 201.042 372.703 202.792 371.917C204.537 371.13 206.365 370.615 208.266 370.359C210.162 370.104 212.063 370.13 213.953 370.432C221.505 371.323 229.532 375.568 236.037 382.417C247.526 394.396 254.422 414.276 245.729 437.198C244.323 440.859 243.141 444.354 242.131 447.693C246.328 447.88 250.693 447.948 255.006 447.911C272.125 447.76 289.964 445.771 303.11 441.406C313.386 437.984 320.693 433.208 322.474 426.786C324.75 418.589 328.448 416.724 333.688 418.229C337.11 419.187 341.151 421.755 345.964 424.839C354.677 430.453 366.11 437.797 380.526 439.318C510.631 453.167 546.084 420.182 550.261 381.115C552.709 358.104 544.474 332.802 538.282 313.562C533.604 299.161 529.995 288.052 532.683 282.984L533.042 282.302L533.792 282.146C547.917 279.219 581.214 237.276 596.141 218.448C599.568 214.115 602.084 210.984 603.365 209.63C610.948 158.937 595.698 117.338 569.745 86.4739C566.297 82.4531 562.677 78.5937 558.891 74.8906C555.104 71.1927 551.162 67.6614 547.063 64.3072C542.964 60.9479 538.729 57.776 534.354 54.7916C529.979 51.8072 525.485 49.0208 520.865 46.427C516.245 43.8385 511.521 41.4531 506.693 39.276C501.865 37.0989 496.953 35.1406 491.953 33.3958C486.953 31.6458 481.886 30.1249 476.75 28.8229C471.615 27.5208 466.438 26.4479 461.209 25.5989C431.026 20.9947 402.865 25.7708 384.719 41.0052C375.646 48.6249 366.985 55.9843 359.709 62.1458C337.61 80.9791 328.979 88.2031 324.354 89.776C320.469 91.1302 319.219 89.3697 316.995 86.4739C314.032 82.4999 308.948 75.6718 287.516 74.4895C81.5367 62.1458 40.4326 105.63 37.917 148.427C37.042 163.271 40.8128 178.167 43.943 190.557C45.667 196.63 46.9378 202.792 47.7607 209.047C48.5159 217.609 46.3076 222.963 37.4899 223.734C18.6565 225.448 7.71904 243.203 4.34404 268.588C2.01591 286.083 3.30237 307.109 8.1305 328.953C13.193 351.943 21.5159 373.682 33.1045 394.177C62.7399 446.151 114.183 485.812 186.084 469.5L186.823 472.682Z" fill="#F4F0A3"/>
<mask id="mask0_3311_1363" style="mask-type:luminance" maskUnits="userSpaceOnUse" x="475" y="0" width="1052" height="736">
<path d="M1526.02 0H475.354V736H1526.02V0Z" fill="white"/>
</mask>
<g mask="url(#mask0_3311_1363)">
<path d="M562.302 352.95C544.646 352.95 530.016 348.919 518.407 340.846C506.792 332.762 498.084 321.846 492.282 308.096C486.474 294.335 483.573 279.002 483.573 262.096C483.573 234.335 490.573 212.189 504.573 195.658C518.584 179.132 539.724 170.867 567.99 170.867C576.823 170.867 585.782 172.445 594.865 175.596C603.948 178.752 611.578 183.549 617.761 189.992C623.938 196.424 627.032 204.429 627.032 214.012C627.032 219.07 625.136 223.174 621.344 226.325C617.563 229.481 613.032 231.054 607.74 231.054C597.391 231.054 590.828 225.632 588.052 214.783C587.552 213.007 587.042 211.174 586.532 209.283C586.032 207.398 585.396 205.445 584.636 203.429C582.87 197.111 580.094 191.117 576.302 185.45C572.521 179.773 566.849 176.929 559.282 176.929C551.709 176.929 545.594 179.773 540.927 185.45C536.261 191.117 532.724 198.117 530.323 206.45C527.917 214.783 526.271 223.179 525.386 231.637C524.511 240.085 524.073 247.085 524.073 252.637C524.073 260.96 525.141 269.596 527.282 278.554C529.433 287.512 532.782 295.846 537.323 303.554C541.865 311.252 547.792 317.492 555.115 322.283C562.433 327.075 571.266 329.471 581.615 329.471C589.948 329.471 598.084 327.585 606.032 323.804C613.974 320.012 620.349 314.585 625.157 307.512L629.323 310.158C622.25 324.049 613.412 334.653 602.802 341.971C592.203 349.288 578.703 352.95 562.302 352.95Z" fill="white"/>
<path d="M700.837 352.575C690.238 352.575 680.524 350.679 671.691 346.887C662.857 343.096 655.722 337.356 650.295 329.658C644.878 321.965 642.17 312.57 642.17 301.471C642.17 288.346 645.196 277.304 651.253 268.346C657.305 259.387 665.508 252.575 675.857 247.908C686.201 243.231 697.555 240.887 709.92 240.887C714.462 240.887 718.941 241.21 723.357 241.846C727.774 242.471 732.003 243.669 736.045 245.429L739.837 246.95V219.325C739.837 215.533 739.701 210.992 739.441 205.7C739.191 200.398 738.441 196.106 737.191 192.825C735.925 188.283 733.712 184.439 730.545 181.283C727.389 178.117 722.785 176.533 716.732 176.533C709.16 176.533 703.482 178.679 699.691 182.971C695.91 187.262 693.451 192.439 692.316 198.492C691.191 204.549 690.628 210.231 690.628 215.533C690.628 219.575 688.42 222.606 684.003 224.617C679.587 226.632 675.107 227.637 670.566 227.637C666.274 227.637 662.045 226.695 657.878 224.804C653.712 222.919 651.628 219.95 651.628 215.908C651.628 204.564 655.029 195.611 661.837 189.054C668.654 182.486 677.175 177.814 687.399 175.033C697.618 172.257 707.654 170.867 717.503 170.867C735.92 170.867 750.738 175.158 761.962 183.742C773.196 192.314 778.816 206.064 778.816 224.992V320.762C778.816 321.528 778.816 322.231 778.816 322.867C778.816 323.492 778.816 324.179 778.816 324.929C778.816 325.695 778.878 326.523 779.003 327.408C779.128 328.283 779.321 329.096 779.587 329.846C780.087 331.361 780.899 332.814 782.024 334.2C783.16 335.59 784.993 336.283 787.524 336.283C790.3 336.283 792.951 335.403 795.482 333.637L798.503 337.429C794.462 342.221 789.597 345.695 783.92 347.846C778.253 349.981 772.133 351.054 765.566 351.054C760.774 351.054 756.42 350.044 752.503 348.033C748.597 346.007 745.508 342.971 743.232 338.929L741.732 335.908L739.066 338.179C734.024 343.486 728.217 347.21 721.649 349.346C715.092 351.497 708.154 352.575 700.837 352.575ZM683.045 302.971C683.045 308.778 683.8 314.965 685.316 321.533C686.826 328.09 689.67 333.637 693.837 338.179C698.003 342.721 704.118 344.992 712.191 344.992C715.982 344.992 720.024 344.049 724.316 342.158C728.607 340.273 732.264 337.564 735.295 334.033C738.321 330.492 739.837 326.45 739.837 321.908V252.242L737.941 251.492C736.175 250.742 734.217 250.242 732.066 249.992C729.925 249.731 727.842 249.596 725.816 249.596C715.467 249.596 707.139 252.189 700.837 257.367C694.529 262.533 689.988 269.221 687.212 277.429C684.43 285.627 683.045 294.137 683.045 302.971Z" fill="white"/>
<path d="M804.917 193.575L862.084 175.408V191.679L866.25 187.908C872.802 182.106 880.115 177.814 888.188 175.033C896.271 172.257 904.604 170.867 913.188 170.867C923.532 170.867 933.438 172.575 942.896 175.992C952.365 179.398 959.375 185.887 963.917 195.471L965.813 199.262L968.459 195.846C974.761 187.262 982.709 180.96 992.292 176.929C1001.89 172.887 1011.86 170.867 1022.21 170.867C1038.61 170.867 1051.54 174.846 1061 182.804C1070.47 190.752 1075.21 203.299 1075.21 220.45V322.283C1075.21 335.658 1081.26 342.471 1093.38 342.721V349.158H1018.42V342.721C1030.28 342.471 1036.21 335.658 1036.21 322.283V221.221C1036.21 214.903 1035.13 208.59 1032.98 202.283C1030.84 195.981 1027.44 190.742 1022.77 186.575C1018.1 182.408 1011.86 180.325 1004.04 180.325C997.219 180.325 991.157 182.408 985.854 186.575C980.563 190.742 976.339 195.856 973.188 201.908C970.032 207.965 968.459 214.148 968.459 220.45V322.283C968.459 335.658 974.511 342.471 986.625 342.721V349.158H911.667V342.721C918.235 342.471 922.839 340.71 925.479 337.429C928.131 334.153 929.459 329.106 929.459 322.283V221.221C929.459 210.111 927.188 200.523 922.646 192.45C918.104 184.367 909.271 180.325 896.146 180.325C889.089 180.325 882.969 182.471 877.792 186.762C872.625 191.054 868.714 196.356 866.063 202.658C863.407 208.965 862.084 215.153 862.084 221.221V322.283C862.084 335.658 868.011 342.471 879.875 342.721V349.158H804.917V342.721C817.042 342.471 823.104 335.658 823.104 322.283V221.221C823.104 208.096 817.042 201.153 804.917 200.387V193.575Z" fill="white"/>
<path d="M1100.16 193.575L1157.33 175.408V322.283C1157.33 335.658 1163.26 342.471 1175.12 342.721V349.158H1100.16V342.721C1112.27 342.471 1118.33 335.658 1118.33 322.283V221.221C1118.33 208.096 1112.27 201.153 1100.16 200.387V193.575ZM1105.45 129.596C1105.45 122.544 1107.97 116.492 1113.02 111.45C1118.07 106.398 1124.13 103.867 1131.2 103.867C1138.27 103.867 1144.39 106.398 1149.56 111.45C1154.74 116.492 1157.33 122.544 1157.33 129.596C1157.33 136.669 1154.67 142.856 1149.37 148.158C1144.06 153.45 1138.01 156.096 1131.2 156.096C1124.13 156.096 1118.07 153.45 1113.02 148.158C1107.97 142.856 1105.45 136.669 1105.45 129.596Z" fill="white"/>
<path d="M1179.64 103.116L1236.81 85.3248V322.283C1236.81 335.658 1242.74 342.471 1254.6 342.721V349.158H1179.64V342.721C1191.75 342.471 1197.81 335.658 1197.81 322.283V130.741C1197.81 117.616 1191.75 110.679 1179.64 109.929V103.116Z" fill="white"/>
<path d="M1322.34 352.575C1311.74 352.575 1302.03 350.679 1293.2 346.887C1284.36 343.096 1277.23 337.356 1271.8 329.658C1266.38 321.965 1263.68 312.57 1263.68 301.471C1263.68 288.346 1266.7 277.304 1272.76 268.346C1278.81 259.387 1287.01 252.575 1297.36 247.908C1307.71 243.231 1319.06 240.887 1331.43 240.887C1335.97 240.887 1340.45 241.21 1344.86 241.846C1349.28 242.471 1353.51 243.669 1357.55 245.429L1361.34 246.95V219.325C1361.34 215.533 1361.21 210.992 1360.95 205.7C1360.7 200.398 1359.95 196.106 1358.7 192.825C1357.43 188.283 1355.22 184.439 1352.05 181.283C1348.89 178.117 1344.29 176.533 1338.24 176.533C1330.67 176.533 1324.99 178.679 1321.2 182.971C1317.42 187.262 1314.96 192.439 1313.82 198.492C1312.7 204.549 1312.13 210.231 1312.13 215.533C1312.13 219.575 1309.93 222.606 1305.51 224.617C1301.09 226.632 1296.61 227.637 1292.07 227.637C1287.78 227.637 1283.55 226.695 1279.38 224.804C1275.22 222.919 1273.13 219.95 1273.13 215.908C1273.13 204.564 1276.54 195.611 1283.34 189.054C1290.16 182.486 1298.68 177.814 1308.9 175.033C1319.12 172.257 1329.16 170.867 1339.01 170.867C1357.43 170.867 1372.24 175.158 1383.47 183.742C1394.7 192.314 1400.32 206.064 1400.32 224.992V320.762C1400.32 321.528 1400.32 322.231 1400.32 322.867C1400.32 323.492 1400.32 324.179 1400.32 324.929C1400.32 325.695 1400.38 326.523 1400.51 327.408C1400.63 328.283 1400.83 329.096 1401.09 329.846C1401.59 331.361 1402.4 332.814 1403.53 334.2C1404.67 335.59 1406.5 336.283 1409.03 336.283C1411.81 336.283 1414.46 335.403 1416.99 333.637L1420.01 337.429C1415.97 342.221 1411.1 345.695 1405.43 347.846C1399.76 349.981 1393.64 351.054 1387.07 351.054C1382.28 351.054 1377.93 350.044 1374.01 348.033C1370.1 346.007 1367.01 342.971 1364.74 338.929L1363.24 335.908L1360.57 338.179C1355.53 343.486 1349.72 347.21 1343.15 349.346C1336.6 351.497 1329.66 352.575 1322.34 352.575ZM1304.55 302.971C1304.55 308.778 1305.31 314.965 1306.82 321.533C1308.33 328.09 1311.18 333.637 1315.34 338.179C1319.51 342.721 1325.62 344.992 1333.7 344.992C1337.49 344.992 1341.53 344.049 1345.82 342.158C1350.11 340.273 1353.77 337.564 1356.8 334.033C1359.83 330.492 1361.34 326.45 1361.34 321.908V252.242L1359.45 251.492C1357.68 250.742 1355.72 250.242 1353.57 249.992C1351.43 249.731 1349.35 249.596 1347.32 249.596C1336.97 249.596 1328.64 252.189 1322.34 257.367C1316.04 262.533 1311.49 269.221 1308.72 277.429C1305.94 285.627 1304.55 294.137 1304.55 302.971Z" fill="white"/>
<path d="M479.406 386.693L536.573 368.902V533.943H545.656L582.76 502.131C584.771 500.37 587.229 498.037 590.135 495.131C593.036 492.23 595.62 489.016 597.885 485.485C600.161 481.943 601.302 478.537 601.302 475.256C601.302 471.73 600.286 469.084 598.26 467.318C596.245 465.558 594.104 464.292 591.844 463.527V456.714H652.781V463.152C647.224 463.652 640.974 466.048 634.031 470.339C627.099 474.631 620.354 479.433 613.802 484.735C606.219 490.277 599.078 496.016 592.385 501.943C585.703 507.876 580.349 512.48 576.323 515.756L574.427 517.652L638.406 607.381C641.932 612.173 645.781 616.402 649.948 620.068C654.115 623.725 659.349 625.798 665.656 626.298V632.735H582.76V626.298C585.021 626.298 587.036 625.792 588.802 624.777C590.313 624.027 591.703 622.959 592.969 621.568C594.229 620.183 594.865 618.355 594.865 616.089C594.865 614.829 594.604 613.626 594.094 612.485C593.594 611.35 593.094 610.272 592.594 609.256C592.094 608.256 591.521 607.381 590.885 606.631C590.26 605.87 589.688 604.98 589.177 603.964L543.01 539.985H536.573V605.86C536.573 619.235 542.5 626.048 554.365 626.298V632.735H479.406V626.298C491.516 626.048 497.573 619.235 497.573 605.86V414.318C497.573 401.193 491.516 394.256 479.406 393.506V386.693Z" fill="white"/>
<path d="M754.961 636.527C736.794 636.527 721.716 632.558 709.732 624.61C697.742 616.652 688.784 605.735 682.857 591.86C676.924 577.975 673.961 562.193 673.961 544.527C673.961 526.86 676.924 511.277 682.857 497.777C688.784 484.277 697.742 473.683 709.732 465.985C721.716 458.292 736.794 454.443 754.961 454.443C782.471 454.443 802.919 462.772 816.294 479.423C829.669 496.079 836.357 517.777 836.357 544.527C836.357 562.193 833.388 577.975 827.461 591.86C821.529 605.735 812.57 616.652 800.586 624.61C788.596 632.558 773.388 636.527 754.961 636.527ZM715.232 544.527C715.232 551.1 715.607 559.246 716.357 568.964C717.117 578.673 718.758 588.329 721.273 597.923C723.799 607.506 727.773 615.516 733.19 621.943C738.617 628.376 745.878 631.589 754.961 631.589C764.305 631.589 771.628 628.376 776.919 621.943C782.221 615.516 786.195 607.506 788.836 597.923C791.487 588.329 793.19 578.673 793.94 568.964C794.701 559.246 795.086 551.1 795.086 544.527C795.086 537.725 794.773 529.589 794.148 520.131C793.523 510.662 791.883 501.256 789.232 491.923C786.576 482.579 782.596 474.813 777.294 468.631C772.003 462.454 764.555 459.36 754.961 459.36C745.628 459.36 738.305 462.454 733.003 468.631C727.711 474.813 723.799 482.579 721.273 491.923C718.758 501.256 717.117 510.725 716.357 520.318C715.607 529.902 715.232 537.975 715.232 544.527Z" fill="white"/>
<path d="M988.133 632.735H847.32L953.695 462.402L948.758 462.777C934.883 463.277 922.513 464.792 911.654 467.318C900.805 469.834 891.346 474.563 883.279 481.506C875.206 488.454 868.138 498.985 862.07 513.11H855.654L865.862 456.714H1002.9L898.049 626.673H902.966C918.102 626.423 931.284 625.292 942.508 623.277C953.742 621.251 963.591 616.772 972.049 609.839C980.508 602.897 988.013 591.73 994.57 576.339H1001.01L988.133 632.735Z" fill="white"/>
<path d="M1069.5 636.152C1058.9 636.152 1049.19 634.256 1040.36 630.464C1031.52 626.673 1024.39 620.933 1018.96 613.235C1013.54 605.542 1010.83 596.147 1010.83 585.048C1010.83 571.923 1013.86 560.881 1019.92 551.923C1025.97 542.964 1034.17 536.152 1044.52 531.485C1054.87 526.808 1066.22 524.464 1078.58 524.464C1083.13 524.464 1087.61 524.787 1092.02 525.423C1096.44 526.048 1100.67 527.246 1104.71 529.006L1108.5 530.527V502.902C1108.5 499.11 1108.37 494.568 1108.11 489.277C1107.86 483.975 1107.11 479.683 1105.86 476.402C1104.59 471.86 1102.38 468.016 1099.21 464.86C1096.05 461.693 1091.45 460.11 1085.4 460.11C1077.82 460.11 1072.15 462.256 1068.36 466.548C1064.57 470.839 1062.12 476.016 1060.98 482.068C1059.86 488.126 1059.29 493.808 1059.29 499.11C1059.29 503.152 1057.08 506.183 1052.67 508.193C1048.25 510.209 1043.77 511.214 1039.23 511.214C1034.94 511.214 1030.71 510.272 1026.54 508.381C1022.38 506.496 1020.29 503.527 1020.29 499.485C1020.29 488.141 1023.69 479.188 1030.5 472.631C1037.32 466.063 1045.84 461.391 1056.06 458.61C1066.28 455.834 1076.32 454.443 1086.17 454.443C1104.58 454.443 1119.4 458.735 1130.63 467.318C1141.86 475.891 1147.48 489.641 1147.48 508.568V604.339C1147.48 605.105 1147.48 605.808 1147.48 606.443C1147.48 607.068 1147.48 607.756 1147.48 608.506C1147.48 609.272 1147.54 610.1 1147.67 610.985C1147.79 611.86 1147.99 612.673 1148.25 613.423C1148.75 614.938 1149.56 616.391 1150.69 617.777C1151.82 619.167 1153.66 619.86 1156.19 619.86C1158.97 619.86 1161.62 618.98 1164.15 617.214L1167.17 621.006C1163.13 625.798 1158.26 629.272 1152.58 631.423C1146.92 633.558 1140.8 634.631 1134.23 634.631C1129.44 634.631 1125.08 633.621 1121.17 631.61C1117.26 629.584 1114.17 626.548 1111.9 622.506L1110.4 619.485L1107.73 621.756C1102.69 627.063 1096.88 630.787 1090.31 632.923C1083.76 635.074 1076.82 636.152 1069.5 636.152ZM1051.71 586.548C1051.71 592.355 1052.47 598.542 1053.98 605.11C1055.49 611.667 1058.33 617.214 1062.5 621.756C1066.67 626.298 1072.78 628.568 1080.86 628.568C1084.65 628.568 1088.69 627.626 1092.98 625.735C1097.27 623.85 1100.93 621.141 1103.96 617.61C1106.99 614.068 1108.5 610.027 1108.5 605.485V535.818L1106.61 535.068C1104.84 534.318 1102.88 533.818 1100.73 533.568C1098.59 533.308 1096.51 533.173 1094.48 533.173C1084.13 533.173 1075.8 535.766 1069.5 540.943C1063.19 546.11 1058.65 552.798 1055.88 561.006C1053.1 569.204 1051.71 577.714 1051.71 586.548Z" fill="white"/>
<path d="M1173.21 386.693L1230.37 368.902V533.943H1239.46L1276.56 502.131C1278.57 500.37 1281.03 498.037 1283.94 495.131C1286.84 492.23 1289.42 489.016 1291.69 485.485C1293.96 481.943 1295.1 478.537 1295.1 475.256C1295.1 471.73 1294.09 469.084 1292.06 467.318C1290.05 465.558 1287.9 464.292 1285.64 463.527V456.714H1346.58V463.152C1341.02 463.652 1334.77 466.048 1327.83 470.339C1320.9 474.631 1314.15 479.433 1307.6 484.735C1300.02 490.277 1292.88 496.016 1286.19 501.943C1279.5 507.876 1274.15 512.48 1270.12 515.756L1268.23 517.652L1332.21 607.381C1335.73 612.173 1339.58 616.402 1343.75 620.068C1347.92 623.725 1353.15 625.798 1359.46 626.298V632.735H1276.56V626.298C1278.82 626.298 1280.84 625.792 1282.6 624.777C1284.11 624.027 1285.5 622.959 1286.77 621.568C1288.03 620.183 1288.67 618.355 1288.67 616.089C1288.67 614.829 1288.4 613.626 1287.89 612.485C1287.39 611.35 1286.89 610.272 1286.39 609.256C1285.89 608.256 1285.32 607.381 1284.69 606.631C1284.06 605.87 1283.49 604.98 1282.98 603.964L1236.81 539.985H1230.37V605.86C1230.37 619.235 1236.3 626.048 1248.17 626.298V632.735H1173.21V626.298C1185.32 626.048 1191.37 619.235 1191.37 605.86V414.318C1191.37 401.193 1185.32 394.256 1173.21 393.506V386.693Z" fill="white"/>
<path d="M1423.78 636.152C1413.18 636.152 1403.47 634.256 1394.64 630.464C1385.8 626.673 1378.67 620.933 1373.24 613.235C1367.82 605.542 1365.12 596.147 1365.12 585.048C1365.12 571.923 1368.14 560.881 1374.2 551.923C1380.25 542.964 1388.45 536.152 1398.8 531.485C1409.15 526.808 1420.5 524.464 1432.87 524.464C1437.41 524.464 1441.89 524.787 1446.3 525.423C1450.72 526.048 1454.95 527.246 1458.99 529.006L1462.78 530.527V502.902C1462.78 499.11 1462.65 494.568 1462.39 489.277C1462.14 483.975 1461.39 479.683 1460.14 476.402C1458.87 471.86 1456.66 468.016 1453.49 464.86C1450.33 461.693 1445.73 460.11 1439.68 460.11C1432.1 460.11 1426.43 462.256 1422.64 466.548C1418.85 470.839 1416.4 476.016 1415.26 482.068C1414.14 488.126 1413.57 493.808 1413.57 499.11C1413.57 503.152 1411.37 506.183 1406.95 508.193C1402.53 510.209 1398.05 511.214 1393.51 511.214C1389.22 511.214 1384.99 510.272 1380.82 508.381C1376.66 506.496 1374.57 503.527 1374.57 499.485C1374.57 488.141 1377.97 479.188 1384.78 472.631C1391.6 466.063 1400.12 461.391 1410.34 458.61C1420.56 455.834 1430.6 454.443 1440.45 454.443C1458.87 454.443 1473.68 458.735 1484.91 467.318C1496.14 475.891 1501.76 489.641 1501.76 508.568V604.339C1501.76 605.105 1501.76 605.808 1501.76 606.443C1501.76 607.068 1501.76 607.756 1501.76 608.506C1501.76 609.272 1501.82 610.1 1501.95 610.985C1502.07 611.86 1502.27 612.673 1502.53 613.423C1503.03 614.938 1503.84 616.391 1504.97 617.777C1506.1 619.167 1507.94 619.86 1510.47 619.86C1513.25 619.86 1515.9 618.98 1518.43 617.214L1521.45 621.006C1517.41 625.798 1512.54 629.272 1506.87 631.423C1501.2 633.558 1495.08 634.631 1488.51 634.631C1483.72 634.631 1479.37 633.621 1475.45 631.61C1471.54 629.584 1468.45 626.548 1466.18 622.506L1464.68 619.485L1462.01 621.756C1456.97 627.063 1451.16 630.787 1444.59 632.923C1438.04 635.074 1431.1 636.152 1423.78 636.152ZM1405.99 586.548C1405.99 592.355 1406.75 598.542 1408.26 605.11C1409.77 611.667 1412.62 617.214 1416.78 621.756C1420.95 626.298 1427.06 628.568 1435.14 628.568C1438.93 628.568 1442.97 627.626 1447.26 625.735C1451.55 623.85 1455.21 621.141 1458.24 617.61C1461.27 614.068 1462.78 610.027 1462.78 605.485V535.818L1460.89 535.068C1459.12 534.318 1457.16 533.818 1455.01 533.568C1452.87 533.308 1450.79 533.173 1448.76 533.173C1438.41 533.173 1430.08 535.766 1423.78 540.943C1417.47 546.11 1412.93 552.798 1410.16 561.006C1407.38 569.204 1405.99 577.714 1405.99 586.548Z" fill="white"/>
</g>
<mask id="mask1_3311_1363" style="mask-type:luminance" maskUnits="userSpaceOnUse" x="1353" y="125" width="259" height="259">
<path d="M1353.48 125.536H1611.48V383.536H1353.48V125.536Z" fill="white"/>
</mask>
<g mask="url(#mask1_3311_1363)">
<path d="M1482.43 383.443C1482.43 312.484 1424.44 254.49 1353.48 254.49C1424.44 254.49 1482.43 196.49 1482.43 125.536C1482.43 196.49 1540.43 254.49 1611.39 254.49C1540.43 254.49 1482.43 312.484 1482.43 383.443Z" fill="#FDC4EA"/>
</g>
</svg>
